<svg width="150" height="14" viewBox="0 0 150 14" fill="none" xmlns="http://www.w3.org/2000/svg">
<g clip-path="url(#clip0_1859_2444)">
<path d="M12.7382 0.644053C12.7382 0.374303 12.9122 0.209023 13.2524 0.209023H16.5148C16.6293 0.216336 16.7401 0.252447 16.837 0.314029C16.9339 0.375612 17.0138 0.460686 17.0694 0.561413L21.1334 8.25005C21.4689 8.91428 21.9707 9.82956 22.1851 10.6388H22.2317L22.9059 0.659645C22.9059 0.347796 23.0613 0.204346 23.4434 0.204346H25.3325C25.7985 0.204346 25.8172 0.369626 25.8156 0.639375L24.9503 13.3176C24.9503 13.5655 24.8027 13.7105 24.4144 13.7105H21.1271C21.0073 13.7024 20.8915 13.6638 20.7907 13.5983C20.6898 13.5329 20.6073 13.4427 20.5508 13.3363L16.535 5.48706C15.9602 4.44705 15.6495 3.76098 15.4864 3.07647H15.4367L14.7842 13.3223C14.7842 13.5702 14.6118 13.7152 14.3181 13.7152H12.3095C11.8978 13.7152 11.8745 13.5281 11.876 13.3223L12.7382 0.644053Z" fill="#00A58C"/>
<path d="M136.917 0.644053C136.917 0.374303 137.091 0.209023 137.429 0.209023H140.699C140.814 0.216336 140.925 0.252447 141.022 0.314029C141.118 0.375612 141.198 0.460686 141.254 0.561413L145.319 8.25005C145.653 8.91428 146.155 9.82956 146.37 10.6388H146.416L147.092 0.659645C147.092 0.347796 147.247 0.204346 147.63 0.204346H149.519C149.977 0.204346 150.002 0.369626 150 0.639375L149.136 13.3223C149.136 13.5655 148.981 13.7214 148.599 13.7214H145.304C145.184 13.7133 145.068 13.6747 144.967 13.6093C144.867 13.5438 144.784 13.4536 144.728 13.3472L140.712 5.48706C140.137 4.44705 139.826 3.76098 139.663 3.07647H139.613L138.961 13.3223C138.961 13.5702 138.789 13.7152 138.495 13.7152H136.486C136.075 13.7152 136.051 13.5281 136.053 13.3223L136.917 0.644053Z" fill="#00577C"/>
<path d="M65.2102 12.7188C65.2102 13.6325 62.6827 13.9241 60.7936 13.9241C55.594 13.9241 53.1302 11.8503 53.1535 7.66836C53.1908 2.30144 57.0714 0 62.0286 0C63.7002 0 65.9745 0.269749 65.9714 0.873177L65.8689 2.53533C65.8689 2.72244 65.7928 2.95165 65.5986 2.95165C64.9461 2.95165 64.1026 2.28585 62.0675 2.28585C58.5379 2.28585 56.8151 4.42202 56.7949 7.50308C56.7763 10.2255 58.0859 11.5337 60.9894 11.5337C61.2178 11.5284 61.4452 11.5007 61.6682 11.4511L61.9385 7.50308C61.9385 7.23177 62.0861 7.10703 62.4729 7.10703H65.1372C65.5737 7.10703 65.5722 7.29414 65.5706 7.50308L65.2102 12.7188Z" fill="#00A58C"/>
<path d="M127.971 12.7188C127.971 13.6325 125.443 13.9241 123.554 13.9241C118.355 13.9241 115.891 11.8503 115.914 7.66836C115.952 2.30144 119.832 0 124.789 0C126.461 0 128.735 0.269749 128.732 0.873177L128.63 2.53533C128.63 2.72244 128.554 2.95165 128.359 2.95165C127.707 2.95165 126.863 2.28585 124.828 2.28585C121.299 2.28585 119.576 4.42202 119.556 7.50308C119.535 10.2255 120.847 11.5337 123.75 11.5337C123.979 11.5284 124.206 11.5007 124.429 11.4511L124.699 7.50308C124.699 7.23177 124.855 7.10703 125.234 7.10703H127.898C128.334 7.10703 128.333 7.29414 128.331 7.50308L127.971 12.7188Z" fill="#00577C"/>
<path d="M111.076 0.601914C111.076 0.332165 111.231 0.208984 111.542 0.208984H114.111C114.475 0.208984 114.473 0.374264 114.472 0.601914L113.608 13.3222C113.608 13.5701 113.485 13.7152 113.195 13.7152H110.627C110.215 13.7152 110.217 13.528 110.217 13.3222L111.076 0.601914Z" fill="#00577C"/>
<path d="M131.224 0.601914C131.224 0.332165 131.38 0.208984 131.69 0.208984H134.258C134.622 0.208984 134.622 0.374264 134.619 0.601914L133.757 13.3222C133.757 13.5655 133.629 13.7214 133.337 13.7214H130.771C130.357 13.7214 130.359 13.5343 130.361 13.3285L131.224 0.601914Z" fill="#00577C"/>
<path d="M9.85387 0.208984H1.35155C1.01133 0.208984 0.866855 0.332165 0.865301 0.601914L0 13.3222C0 13.528 0.021749 13.7214 0.434981 13.7214H8.9373C9.27596 13.7214 9.4484 13.5764 9.44996 13.3285L9.53074 11.9345C9.53074 11.6648 9.48569 11.54 9.07401 11.54H3.85424C3.59636 11.5166 3.53422 11.3966 3.52179 11.25L4.09503 2.79109C4.09503 2.51978 4.25038 2.39504 4.58128 2.39504H9.69541C10.0574 2.39504 10.1801 2.25003 10.2065 1.98029L10.3122 0.65025C10.3137 0.396094 10.2904 0.208984 9.85387 0.208984Z" fill="#00A58C"/>
<path d="M8.17782 5.41675H6.52489C6.10855 5.41675 5.93145 5.57267 5.92835 5.90011L5.79785 7.60593C5.79785 7.88503 5.85533 8.08773 6.34934 8.08773H8.00538C8.41861 8.08773 8.59726 7.93181 8.60037 7.60593L8.73086 5.90011C8.73397 5.62101 8.67338 5.41831 8.17782 5.41675Z" fill="#00A58C"/>
<path d="M38.0906 0.208984H29.5883C29.2496 0.208984 29.1036 0.332165 29.102 0.601914L28.2383 13.3222C28.2383 13.528 28.26 13.7152 28.6717 13.7152H37.174C37.5142 13.7152 37.6836 13.5701 37.6867 13.3222L37.769 11.9283C37.769 11.6585 37.724 11.5338 37.303 11.5338H32.0832C31.8207 11.5104 31.7616 11.3872 31.7508 11.236L32.3255 2.78486C32.3255 2.51355 32.4809 2.38881 32.8118 2.38881H37.9213C38.2863 2.38881 38.4075 2.2438 38.4339 1.97405L38.5396 0.644013C38.5504 0.396094 38.5271 0.208984 38.0906 0.208984Z" fill="#00A58C"/>
<path d="M36.4153 5.41675H34.7608C34.3445 5.41675 34.1658 5.57267 34.1643 5.90011L34.0322 7.60593C34.0322 7.88503 34.0913 8.08773 34.5868 8.08773H36.2398C36.6561 8.08773 36.8332 7.93181 36.8363 7.60593L36.973 5.90011C36.973 5.62101 36.9093 5.41831 36.4153 5.41675Z" fill="#00A58C"/>
<path d="M45.9841 6.33369C45.6734 6.36956 45.518 6.4522 45.5025 6.69856L45.4248 8.17828C45.4122 8.36129 45.4487 8.54434 45.5304 8.70842L48.159 13.5062C48.2568 13.6746 48.3454 13.7167 48.5939 13.7152H51.7631C52.0847 13.7152 52.268 13.5951 52.0101 13.2178L48.3827 7.50936C49.5152 7.35344 51.6357 6.60968 51.6357 3.83111C51.6357 2.20638 50.6461 0.208984 46.534 0.208984H41.4789C41.1682 0.208984 40.9927 0.332165 40.9927 0.601914L40.1289 13.3207C40.1289 13.528 40.1491 13.7152 40.5608 13.7152H43.1039C43.3959 13.7152 43.5187 13.5701 43.5202 13.3207L43.7936 9.39917V9.39137L44.0049 6.36956L44.2535 2.2859H45.633C47.4552 2.2859 48.0564 3.36645 48.0331 4.37996C48.0036 5.35293 47.4832 6.15282 45.9841 6.33369Z" fill="#00A58C"/>
<path d="M102.744 6.33369C102.433 6.36956 102.278 6.4522 102.263 6.69856L102.185 8.17828C102.173 8.36143 102.21 8.54446 102.292 8.70842L104.914 13.5062C105.014 13.6746 105.101 13.7167 105.351 13.7152H108.517C108.839 13.7152 109.023 13.5951 108.764 13.2178L105.138 7.50936C106.269 7.35344 108.39 6.60968 108.39 3.83111C108.39 2.20638 107.4 0.208984 103.288 0.208984H98.2265C97.9158 0.208984 97.7403 0.332165 97.7387 0.601914L96.875 13.3207C96.875 13.528 96.8952 13.7152 97.3069 13.7152H99.85C100.142 13.7152 100.265 13.5701 100.266 13.3207L100.54 9.39917V9.39137L100.751 6.36956L100.998 2.2859H102.376C104.198 2.2859 104.801 3.36645 104.776 4.37996C104.756 5.35293 104.24 6.15282 102.744 6.33369Z" fill="#00577C"/>
<path d="M78.4706 0.261963H76.7618L75.3854 2.28898L75.0482 2.78482L73.2089 5.49323H73.1887L71.6849 2.66164L70.4079 0.261963H66.9716L66.9561 0.645537L71.3323 7.86172L70.9625 13.3191C70.9625 13.5265 70.9827 13.7136 71.3944 13.7136H73.9375C74.2296 13.7136 74.3523 13.5686 74.3538 13.3191L74.6273 9.39757V9.38978L74.7329 7.86951L78.4023 3.00935L80.1857 0.645537L80.2043 0.263522L78.4706 0.261963Z" fill="#00A58C"/>
<path d="M93.4933 1.46733C92.3887 0.612866 90.888 -0.0186278 88.7551 0.0234718C88.5439 0.023926 88.333 0.0406067 88.1244 0.0733676C88.6625 0.312547 89.1705 0.615084 89.6375 0.974611V0.974611C91.1288 2.13001 91.8776 3.90755 91.8605 6.26201L91.8372 6.41793C91.8372 6.65182 91.8232 6.88571 91.8015 7.10244C91.6259 8.93611 90.7824 10.3628 89.2429 11.0925C89.0217 11.1964 88.7932 11.284 88.5593 11.3545C88.3554 11.4184 88.1479 11.4705 87.9379 11.5104C85.878 11.7926 84.3322 10.0307 84.3556 7.50317C84.3556 7.26772 84.3695 7.03539 84.3913 6.8171C84.5668 4.98499 85.4119 3.55828 86.9499 2.82699C87.3363 2.61419 87.757 2.47117 88.1927 2.40444C88.5597 2.33806 88.9343 2.32493 89.305 2.36546C89.1296 2.18128 88.9394 2.01179 88.7364 1.8587C87.7096 1.09155 86.6376 0.703302 85.4989 0.898208C84.7325 1.01233 84.005 1.31084 83.3784 1.76827C81.7426 3.01566 80.7374 4.94601 80.7141 7.66845C80.6986 9.82176 81.3495 11.4106 82.6949 12.4569C83.0798 12.7541 83.4967 13.0072 83.9377 13.2116C84.7903 13.5981 85.7067 13.8238 86.6408 13.8774C86.8955 13.8945 87.1596 13.9023 87.433 13.8976C89.5365 13.7822 91.4053 13.2225 92.8097 12.1528C94.4456 10.9054 95.4507 8.97509 95.474 6.25265C95.4895 4.10245 94.8386 2.50891 93.4933 1.46733Z" fill="#00577C"/>
</g>
<defs>
<clipPath id="clip0_1859_2444">
<rect width="150" height="13.9241" fill="white"/>
</clipPath>
</defs>
</svg>
