<svg width="240" height="32" viewBox="0 0 240 32" fill="none" xmlns="http://www.w3.org/2000/svg">
<path d="M10.0234 25H0.15625V7.86719H10.0234V10.8438H3.78906V14.6055H9.58984V17.582H3.78906V22H10.0234V25ZM28.8086 25H24.1914L16.7383 12.0391H16.6328C16.7812 14.3281 16.8555 15.9609 16.8555 16.9375V25H13.6094V7.86719H18.1914L25.6328 20.6992H25.7148C25.5977 18.4727 25.5391 16.8984 25.5391 15.9766V7.86719H28.8086V25ZM43 25H33.1328V7.86719H43V10.8438H36.7656V14.6055H42.5664V17.582H36.7656V22H43V25ZM50.2188 15.4727H51.3906C52.5391 15.4727 53.3867 15.2812 53.9336 14.8984C54.4805 14.5156 54.7539 13.9141 54.7539 13.0938C54.7539 12.2812 54.4727 11.7031 53.9102 11.3594C53.3555 11.0156 52.4922 10.8438 51.3203 10.8438H50.2188V15.4727ZM50.2188 18.4258V25H46.5859V7.86719H51.5781C53.9062 7.86719 55.6289 8.29297 56.7461 9.14453C57.8633 9.98828 58.4219 11.2734 58.4219 13C58.4219 14.0078 58.1445 14.9062 57.5898 15.6953C57.0352 16.4766 56.25 17.0898 55.2344 17.5352C57.8125 21.3867 59.4922 23.875 60.2734 25H56.2422L52.1523 18.4258H50.2188ZM68.9336 15.3789H75.7305V24.2617C74.6289 24.6211 73.5898 24.8711 72.6133 25.0117C71.6445 25.1602 70.6523 25.2344 69.6367 25.2344C67.0508 25.2344 65.0742 24.4766 63.707 22.9609C62.3477 21.4375 61.668 19.2539 61.668 16.4102C61.668 13.6445 62.457 11.4883 64.0352 9.94141C65.6211 8.39453 67.8164 7.62109 70.6211 7.62109C72.3789 7.62109 74.0742 7.97266 75.707 8.67578L74.5 11.582C73.25 10.957 71.9492 10.6445 70.5977 10.6445C69.0273 10.6445 67.7695 11.1719 66.8242 12.2266C65.8789 13.2812 65.4062 14.6992 65.4062 16.4805C65.4062 18.3398 65.7852 19.7617 66.543 20.7461C67.3086 21.7227 68.418 22.2109 69.8711 22.2109C70.6289 22.2109 71.3984 22.1328 72.1797 21.9766V18.4023H68.9336V15.3789ZM85.1523 14.9219L88.7266 7.86719H92.6406L86.957 18.332V25H83.3477V18.4492L77.6641 7.86719H81.6016L85.1523 14.9219Z" fill="#00A58D"/>
<path d="M110.348 16.4102C110.348 19.2461 109.645 21.4258 108.238 22.9492C106.832 24.4727 104.816 25.2344 102.191 25.2344C99.5664 25.2344 97.5508 24.4727 96.1445 22.9492C94.7383 21.4258 94.0352 19.2383 94.0352 16.3867C94.0352 13.5352 94.7383 11.3594 96.1445 9.85938C97.5586 8.35156 99.582 7.59766 102.215 7.59766C104.848 7.59766 106.859 8.35547 108.25 9.87109C109.648 11.3867 110.348 13.5664 110.348 16.4102ZM97.8438 16.4102C97.8438 18.3242 98.207 19.7656 98.9336 20.7344C99.6602 21.7031 100.746 22.1875 102.191 22.1875C105.09 22.1875 106.539 20.2617 106.539 16.4102C106.539 12.5508 105.098 10.6211 102.215 10.6211C100.77 10.6211 99.6797 11.1094 98.9453 12.0859C98.2109 13.0547 97.8438 14.4961 97.8438 16.4102ZM117.531 15.4727H118.703C119.852 15.4727 120.699 15.2812 121.246 14.8984C121.793 14.5156 122.066 13.9141 122.066 13.0938C122.066 12.2812 121.785 11.7031 121.223 11.3594C120.668 11.0156 119.805 10.8438 118.633 10.8438H117.531V15.4727ZM117.531 18.4258V25H113.898V7.86719H118.891C121.219 7.86719 122.941 8.29297 124.059 9.14453C125.176 9.98828 125.734 11.2734 125.734 13C125.734 14.0078 125.457 14.9062 124.902 15.6953C124.348 16.4766 123.562 17.0898 122.547 17.5352C125.125 21.3867 126.805 23.875 127.586 25H123.555L119.465 18.4258H117.531ZM129.742 25V7.86719H133.375V25H129.742ZM144.191 15.3789H150.988V24.2617C149.887 24.6211 148.848 24.8711 147.871 25.0117C146.902 25.1602 145.91 25.2344 144.895 25.2344C142.309 25.2344 140.332 24.4766 138.965 22.9609C137.605 21.4375 136.926 19.2539 136.926 16.4102C136.926 13.6445 137.715 11.4883 139.293 9.94141C140.879 8.39453 143.074 7.62109 145.879 7.62109C147.637 7.62109 149.332 7.97266 150.965 8.67578L149.758 11.582C148.508 10.957 147.207 10.6445 145.855 10.6445C144.285 10.6445 143.027 11.1719 142.082 12.2266C141.137 13.2812 140.664 14.6992 140.664 16.4805C140.664 18.3398 141.043 19.7617 141.801 20.7461C142.566 21.7227 143.676 22.2109 145.129 22.2109C145.887 22.2109 146.656 22.1328 147.438 21.9766V18.4023H144.191V15.3789ZM155.078 25V7.86719H158.711V25H155.078ZM178.223 25H173.605L166.152 12.0391H166.047C166.195 14.3281 166.27 15.9609 166.27 16.9375V25H163.023V7.86719H167.605L175.047 20.6992H175.129C175.012 18.4727 174.953 16.8984 174.953 15.9766V7.86719H178.223V25Z" fill="#00587C"/>
</svg>
