<?xml version="1.0" encoding="UTF-8"?>
<svg id="Layer_1" data-name="Layer 1" xmlns="http://www.w3.org/2000/svg" xmlns:xlink="http://www.w3.org/1999/xlink" viewBox="0 0 566.93 143.15">
  <defs>
    <style>
      .cls-1 {
        clip-path: url(#clippath);
      }

      .cls-2 {
        fill: none;
      }

      .cls-2, .cls-3, .cls-4 {
        stroke-width: 0px;
      }

      .cls-3 {
        fill: #a91e22;
      }

      .cls-5 {
        clip-path: url(#clippath-1);
      }

      .cls-6 {
        clip-path: url(#clippath-3);
      }

      .cls-7 {
        clip-path: url(#clippath-2);
      }

      .cls-8 {
        opacity: .35;
      }

      .cls-4 {
        fill: #fff;
      }
    </style>
    <clipPath id="clippath">
      <rect class="cls-2" width="566.93" height="143.15"/>
    </clipPath>
    <clipPath id="clippath-1">
      <rect class="cls-2" width="566.93" height="143.15"/>
    </clipPath>
    <clipPath id="clippath-2">
      <rect class="cls-2" x="44.53" y="10.58" width="98.42" height="122.02"/>
    </clipPath>
    <clipPath id="clippath-3">
      <rect class="cls-2" x="6.83" y="64.87" width="70.66" height="70.92"/>
    </clipPath>
  </defs>
  <g class="cls-1">
    <g class="cls-5">
      <path class="cls-4" d="M535.49,139.28h28.83v-10.11h-17.1v-7.57h14.85v-9.13h-14.85v-6.41h17.1v-10.11h-28.83v43.33ZM512.62,140.32c9.65,0,15.6-4.85,17.04-10.69v-4.51h-9.47c-.69,2.77-3.29,5.08-7.51,5.08-5.66,0-9.48-4.33-9.48-12.6s3.87-12.65,9.48-12.65c4.27,0,6.64,2.08,7.22,4.85h9.48v-4.51c-1.1-4.74-5.84-10.4-16.76-10.4-12.71,0-21.15,8.49-21.15,22.76s8.32,22.65,21.15,22.65M473.95,122.06h-9.13l4.62-14.56,4.51,14.56ZM459.34,139.28l2.48-7.63h15.08l2.43,7.63h10.75v-4.62l-13.69-38.71h-13l-13.75,39.29v4.04h9.71ZM423.37,116.23v-10.4h4.04c3.7,0,5.89,1.91,5.89,4.97,0,3.24-2.25,5.43-5.89,5.43h-4.04ZM423.6,139.28v-13.69h2.89l9.13,13.69h10.92v-4.56l-8.72-12.19c4.68-2.66,7.22-6.99,7.22-11.73,0-9.13-6.76-14.85-17.56-14.85h-15.6v43.33h11.73ZM384.22,139.28h11.73v-33.22h11.44v-10.11h-34.61v10.11h11.44v33.22Z"/>
      <path class="cls-4" d="M358.03,131.94l-11.32-10.34c-1-.96-1.83-1.81-2.48-2.54-1.12.85-2,1.95-2.66,3.32-.66,1.37-1,2.86-1.04,4.48,0,2.7.9,4.75,2.72,6.15,1.81,1.41,4.01,2.11,6.59,2.11,3.35,0,6.09-1.06,8.2-3.18M360.17,101.67l-1.91,4.39c-.27-.11-.79-.36-1.56-.72-.77-.37-1.65-.7-2.63-1.01-.98-.31-2.19-.46-3.61-.46-1.73,0-3.13.54-4.19,1.62-1.06,1.08-1.59,2.37-1.59,3.87s.4,2.85,1.21,4.04,2.21,2.7,4.22,4.51l10.69,9.94c1.23-2.62,1.96-5.78,2.2-9.48l4.74,1.85c-.23,4.39-1.16,8.17-2.77,11.32l4.68,4.22-3.12,3.99-4.56-4.22c-2.97,2.97-7.01,4.45-12.13,4.45-2.85-.04-5.4-.55-7.66-1.53-2.25-.98-4.04-2.44-5.37-4.39-1.33-1.94-1.99-4.3-1.99-7.08.04-2.31.6-4.49,1.68-6.53,1.08-2.04,2.52-3.72,4.33-5.03-1.16-1.69-1.73-3.6-1.73-5.72,0-1.93.45-3.7,1.36-5.32.9-1.62,2.21-2.91,3.93-3.87,1.71-.96,3.73-1.44,6.04-1.44,1.77,0,3.43.23,4.97.69,1.54.46,3.14,1.1,4.8,1.91"/>
      <path class="cls-4" d="M301.29,121.72l14.1,17.56h11.15v-4.56l-14.73-18.2,12.94-16.06v-4.51h-9.94l-13.52,17.27v-17.27h-11.73v43.33h11.73v-17.56ZM266.7,140.32c9.65,0,15.6-4.85,17.04-10.69v-4.51h-9.48c-.69,2.77-3.29,5.08-7.51,5.08-5.66,0-9.48-4.33-9.48-12.6s3.87-12.65,9.48-12.65c4.27,0,6.64,2.08,7.22,4.85h9.48v-4.51c-1.1-4.74-5.84-10.4-16.76-10.4-12.71,0-21.15,8.49-21.15,22.76s8.32,22.65,21.15,22.65M228.03,122.06h-9.13l4.62-14.56,4.51,14.56ZM213.42,139.28l2.48-7.63h15.08l2.43,7.63h10.75v-4.62l-13.69-38.71h-13l-13.75,39.29v4.04h9.71ZM177.45,116.23v-10.4h4.04c3.7,0,5.89,1.91,5.89,4.97,0,3.24-2.25,5.43-5.89,5.43h-4.04ZM177.68,139.28v-13.69h2.89l9.13,13.69h10.92v-4.56l-8.72-12.19c4.68-2.66,7.22-6.99,7.22-11.73,0-9.13-6.76-14.85-17.56-14.85h-15.6v43.33h11.73ZM138.3,139.28h11.73v-33.22h11.44v-10.11h-34.61v10.11h11.44v33.22Z"/>
      <path class="cls-4" d="M349.25,81.51h3.43v-12.24l9.99-15.2v-2.17h-2.17l-9.28,14.45-9.95-14.45h-2.37v2.33l10.34,15v12.28ZM315.08,81.9c8.05,0,11.21-4.11,11.21-4.15v-11.41h-11.88v2.8h8.45v7.34c-1.18.95-3.55,2.57-7.7,2.57-7.23,0-11.49-5.53-11.49-12.48s3.99-12.28,11.49-12.28c6.63,0,8.33,4.5,8.33,4.5h2.45v-2.21s-2.37-5.09-10.86-5.09c-9.24,0-14.81,6.63-14.81,15.08s5.53,15.32,14.81,15.32M271.55,66.19v-11.33h4.62c4.54,0,6.36,2.88,6.36,5.45,0,3.28-2.09,5.88-6.36,5.88h-4.62ZM271.55,81.51v-12.44h4.42l9.59,12.44h2.37v-2.33l-8.49-10.82c4.23-1.07,6.52-4.15,6.52-8.17,0-5.09-3.75-8.29-9.99-8.29h-7.86v29.61h3.43ZM236.69,81.51h16.66v-2.8h-13.23v-11.06h11.92v-2.8h-11.92v-10.15h13.23v-2.8h-16.66v29.61ZM197.31,81.51h3.12v-23.89l15.99,23.89h3.12v-29.61h-3.12v24.08l-15.99-24.08h-3.12v29.61ZM165.88,81.51h16.66v-2.8h-13.23v-11.06h11.92v-2.8h-11.92v-10.15h13.23v-2.8h-16.66v29.61Z"/>
      <g class="cls-8">
        <g class="cls-7">
          <rect class="cls-4" x="34.82" y="52.82" width="117.82" height="37.54" transform="translate(-17.36 111.21) rotate(-57)"/>
        </g>
      </g>
      <g class="cls-8">
        <g class="cls-6">
          <rect class="cls-4" x="23.39" y="71.04" width="37.54" height="58.57" transform="translate(-58.23 58.32) rotate(-44.5)"/>
        </g>
      </g>
      <path class="cls-4" d="M109.91,12.23c-5.64,8.69-3.18,20.32,5.52,25.96,8.69,5.65,20.32,3.18,25.96-5.52,5.64-8.69,3.17-20.32-5.52-25.96-8.69-5.65-20.32-3.17-25.96,5.52"/>
      <path class="cls-4" d="M54.04,103.5c-9.39,4.38-13.46,15.55-9.08,24.94,4.38,9.39,15.55,13.46,24.94,9.08,9.39-4.38,13.46-15.55,9.08-24.94-4.38-9.39-15.55-13.46-24.94-9.08"/>
      <path class="cls-4" d="M35.07,66.24c-7.26-7.39-19.15-7.5-26.54-.23-7.39,7.27-7.5,19.15-.23,26.54,7.27,7.39,19.15,7.5,26.54.23,7.39-7.26,7.5-19.15.23-26.54"/>
    </g>
    <g>
      <rect class="cls-3" x="377.93" y="51.87" width="40.15" height="29.56"/>
      <polygon class="cls-4" points="418.07 65.16 394.81 65.16 394.81 51.87 391.48 51.87 391.48 65.16 377.93 65.16 377.93 68.49 391.48 68.49 391.48 81.42 394.81 81.42 394.81 68.49 418.07 68.49 418.07 65.16"/>
    </g>
  </g>
</svg>