<?xml version="1.0" encoding="UTF-8"?>
<svg id="Layer_1" data-name="Layer 1" xmlns="http://www.w3.org/2000/svg" viewBox="0 0 563.87 141.73">
  <defs>
    <style>
      .cls-1 {
        fill: #434f55;
      }

      .cls-1, .cls-2, .cls-3, .cls-4, .cls-5, .cls-6, .cls-7, .cls-8 {
        stroke-width: 0px;
      }

      .cls-2 {
        fill: #8cc4c2;
      }

      .cls-3 {
        fill: #a91e22;
      }

      .cls-4 {
        fill: #b3d6dc;
      }

      .cls-5 {
        fill: #cfe5e1;
      }

      .cls-6 {
        fill: #fff;
      }

      .cls-7 {
        fill: #00577c;
      }

      .cls-8 {
        fill: #24a899;
      }
    </style>
  </defs>
  <path class="cls-1" d="M383.77,139.34h11.73v-33.22h11.44v-10.11h-34.61v10.11h11.44v33.22h0ZM423.15,139.34v-13.69h2.89l9.13,13.69h10.92v-4.57l-8.72-12.19c4.68-2.66,7.22-6.99,7.22-11.73,0-9.13-6.76-14.85-17.56-14.85h-15.6v43.33h11.73ZM422.91,116.28v-10.4h4.04c3.7,0,5.89,1.91,5.89,4.97,0,3.24-2.25,5.43-5.89,5.43h-4.04ZM458.89,139.34l2.48-7.63h15.08l2.43,7.63h10.75v-4.62l-13.69-38.71h-13l-13.75,39.29v4.04h9.71ZM473.5,122.12h-9.13l4.62-14.56,4.51,14.56h0ZM512.17,140.38c9.65,0,15.6-4.85,17.05-10.69v-4.51h-9.48c-.69,2.77-3.29,5.08-7.51,5.08-5.66,0-9.48-4.33-9.48-12.6s3.87-12.65,9.48-12.65c4.28,0,6.64,2.08,7.22,4.85h9.48v-4.51c-1.1-4.74-5.84-10.4-16.76-10.4-12.71,0-21.15,8.49-21.15,22.76s8.32,22.65,21.15,22.65h0ZM535.04,139.34h28.83v-10.11h-17.1v-7.57h14.85v-9.13h-14.85v-6.41h17.1v-10.11h-28.83v43.33h0Z"/>
  <path class="cls-8" d="M359.72,101.72l-1.91,4.39c-.27-.12-.79-.36-1.56-.72-.77-.36-1.65-.7-2.63-1.01-.98-.31-2.19-.46-3.61-.46-1.73,0-3.13.54-4.19,1.62-1.06,1.08-1.59,2.37-1.59,3.87s.4,2.85,1.21,4.04c.81,1.19,2.21,2.7,4.22,4.51l10.69,9.94c1.23-2.62,1.96-5.78,2.2-9.48l4.74,1.85c-.23,4.39-1.16,8.17-2.77,11.32l4.68,4.22-3.12,3.99-4.56-4.22c-2.97,2.97-7.01,4.45-12.13,4.45-2.85-.04-5.4-.55-7.66-1.53-2.25-.98-4.04-2.45-5.37-4.39-1.33-1.95-1.99-4.31-1.99-7.08.04-2.31.6-4.49,1.68-6.53,1.08-2.04,2.52-3.72,4.33-5.03-1.16-1.7-1.73-3.6-1.73-5.72,0-1.93.45-3.7,1.36-5.32.9-1.62,2.22-2.91,3.93-3.87,1.71-.96,3.73-1.44,6.04-1.44,1.77,0,3.43.23,4.97.69,1.54.46,3.14,1.1,4.8,1.91h0ZM357.58,132l-11.32-10.34c-1-.96-1.83-1.81-2.48-2.54-1.12.85-2,1.96-2.66,3.32-.66,1.37-1,2.86-1.04,4.48,0,2.7.9,4.75,2.71,6.15,1.81,1.41,4.01,2.11,6.59,2.11,3.35,0,6.09-1.06,8.2-3.18h0Z"/>
  <path class="cls-1" d="M137.85,139.34h11.73v-33.22h11.44v-10.11h-34.61v10.11h11.44v33.22h0ZM177.23,139.34v-13.69h2.89l9.13,13.69h10.92v-4.57l-8.72-12.19c4.68-2.66,7.22-6.99,7.22-11.73,0-9.13-6.76-14.85-17.56-14.85h-15.6v43.33h11.73ZM176.99,116.28v-10.4h4.04c3.7,0,5.89,1.91,5.89,4.97,0,3.24-2.25,5.43-5.89,5.43h-4.04ZM212.97,139.34l2.49-7.63h15.08l2.43,7.63h10.75v-4.62l-13.69-38.71h-13l-13.75,39.29v4.04h9.71ZM227.58,122.12h-9.13l4.62-14.56,4.51,14.56h0ZM266.25,140.38c9.65,0,15.6-4.85,17.04-10.69v-4.51h-9.48c-.69,2.77-3.29,5.08-7.51,5.08-5.66,0-9.47-4.33-9.47-12.6s3.87-12.65,9.47-12.65c4.28,0,6.64,2.08,7.22,4.85h9.48v-4.51c-1.1-4.74-5.84-10.4-16.76-10.4-12.71,0-21.15,8.49-21.15,22.76s8.32,22.65,21.15,22.65h0ZM300.84,121.77l14.1,17.57h11.15v-4.57l-14.73-18.2,12.94-16.06v-4.51h-9.94l-13.52,17.28v-17.28h-11.73v43.33h11.73v-17.57h0Z"/>
  <path class="cls-8" d="M165.43,81.56h16.66v-2.8h-13.23v-11.05h11.92v-2.8h-11.92v-10.15h13.23v-2.8h-16.66v29.61h0ZM196.85,81.56h3.12v-23.89l15.99,23.89h3.12v-29.61h-3.12v24.08l-15.99-24.08h-3.12v29.61h0ZM236.24,81.56h16.66v-2.8h-13.23v-11.05h11.92v-2.8h-11.92v-10.15h13.23v-2.8h-16.66v29.61h0ZM271.1,81.56v-12.44h4.42l9.59,12.44h2.37v-2.33l-8.49-10.82c4.22-1.07,6.51-4.15,6.51-8.17,0-5.09-3.75-8.29-9.99-8.29h-7.86v29.61h3.44ZM271.1,66.24v-11.33h4.62c4.54,0,6.36,2.88,6.36,5.45,0,3.28-2.09,5.88-6.36,5.88h-4.62ZM314.63,81.95c8.06,0,11.21-4.11,11.21-4.15v-11.41h-11.88v2.8h8.45v7.34c-1.18.95-3.55,2.57-7.7,2.57-7.22,0-11.49-5.53-11.49-12.48s3.99-12.28,11.49-12.28c6.63,0,8.33,4.5,8.33,4.5h2.45v-2.21s-2.37-5.09-10.86-5.09c-9.24,0-14.8,6.63-14.8,15.08s5.53,15.32,14.8,15.32h0ZM348.8,81.56h3.43v-12.24l9.99-15.2v-2.17h-2.17l-9.28,14.45-9.95-14.45h-2.37v2.33l10.34,15v12.28h0Z"/>
  <polyline class="cls-6" points="141.11 32.46 109.63 12.01 45.46 110.83 76.94 131.27 141.11 32.46"/>
  <polyline class="cls-6" points="48.85 134.43 75.62 108.12 34.57 66.34 7.79 92.65 48.85 134.43"/>
  <polyline class="cls-5" points="76.94 131.27 61.96 121.54 75.62 108.12 58.52 90.72 109.63 12.01 141.11 32.46 76.94 131.27"/>
  <polyline class="cls-4" points="48.85 134.43 7.79 92.65 34.57 66.34 58.52 90.72 45.46 110.83 61.96 121.54 48.85 134.43"/>
  <polyline class="cls-2" points="61.96 121.54 45.46 110.83 58.52 90.72 75.62 108.12 61.96 121.54"/>
  <path class="cls-8" d="M109.46,12.28c-5.65,8.69-3.17,20.32,5.52,25.96,8.69,5.65,20.32,3.17,25.96-5.52,5.65-8.69,3.18-20.32-5.52-25.96-8.69-5.65-20.32-3.17-25.96,5.52h0Z"/>
  <path class="cls-1" d="M53.59,103.55c-9.39,4.38-13.46,15.55-9.08,24.94,4.38,9.39,15.55,13.46,24.94,9.08,9.39-4.38,13.46-15.55,9.08-24.94-4.38-9.39-15.55-13.46-24.94-9.08h0Z"/>
  <path class="cls-7" d="M34.62,66.29c-7.27-7.39-19.15-7.5-26.54-.23-7.39,7.27-7.5,19.15-.23,26.54,7.27,7.39,19.15,7.5,26.54.23,7.39-7.27,7.5-19.15.23-26.54h0Z"/>
  <g>
    <rect class="cls-3" x="378.04" y="52.01" width="40.15" height="29.56"/>
    <polygon class="cls-6" points="418.19 65.3 394.92 65.3 394.92 52.01 391.6 52.01 391.6 65.3 378.04 65.3 378.04 68.63 391.6 68.63 391.6 81.56 394.92 81.56 394.92 68.63 418.19 68.63 418.19 65.3"/>
  </g>
</svg>