<svg width="96" height="96" viewBox="0 0 96 96" fill="none" xmlns="http://www.w3.org/2000/svg">
<mask id="mask0_2083_8065" style="mask-type:alpha" maskUnits="userSpaceOnUse" x="0" y="0" width="96" height="96">
<rect width="96" height="96" fill="#D9D9D9"/>
</mask>
<g mask="url(#mask0_2083_8065)">
<path d="M17.2 78.8002V17.2002H43.1C42.2333 15.3335 42.3333 13.5335 43.4 11.8002C44.4666 10.0669 46.0166 9.2002 48.05 9.2002C50.0833 9.2002 51.6333 10.0669 52.7 11.8002C53.7666 13.5335 53.8333 15.3335 52.9 17.2002H78.8V47.3002C78.4 47.2335 78.0166 47.1669 77.65 47.1002C77.2833 47.0335 76.9333 46.9335 76.6 46.8002V19.4002H19.4V76.6002H46.8C46.8666 77.0002 46.9174 77.3893 46.9523 77.7674C46.9871 78.1456 47.0696 78.4899 47.2 78.8002H17.2ZM19.4 76.6002V19.4002V46.8002V46.5002V76.6002ZM47.979 17.8002C48.8317 17.8002 49.5817 17.5002 50.229 16.9002C50.8763 16.3002 51.2 15.5502 51.2 14.6502C51.2 13.7502 50.8763 13.0002 50.229 12.4002C49.5817 11.8002 48.8317 11.5002 47.979 11.5002C47.1263 11.5002 46.4 11.8002 45.8 12.4002C45.2 13.0002 44.9 13.7502 44.9 14.6502C44.9 15.5502 45.2 16.3002 45.8 16.9002C46.4 17.5002 47.1263 17.8002 47.979 17.8002ZM72.3981 87.4002C68.3967 87.4002 64.9967 85.9773 62.1981 83.1315C59.3993 80.2856 58 76.9023 58 72.9815C58 68.8983 59.399 65.464 62.1971 62.6785C64.9951 59.893 68.4121 58.5002 72.4481 58.5002C76.416 58.5002 79.8 59.893 82.6 62.6785C85.4 65.464 86.7999 68.8983 86.7999 72.9815C86.7999 76.9023 85.4 80.2856 82.6 83.1315C79.8 85.9773 76.3993 87.4002 72.3981 87.4002ZM71.1 84.6002H73.7V74.3002H84V71.7002H73.7V61.4002H71.1V71.7002H60.8V74.3002H71.1V84.6002Z" fill="currentColor"/>
<mask id="mask1_2083_8065" style="mask-type:alpha" maskUnits="userSpaceOnUse" x="26" y="25" width="43" height="43">
<rect x="26.7" y="25.7" width="41.6" height="41.6" fill="#D9D9D9" stroke="black" stroke-width="0.6"/>
</mask>
<g mask="url(#mask1_2083_8065)">
<path d="M34.0031 59.6544V59.9544H34.3031H36.2677H36.5677V59.6544V57.6898V57.3898H36.2677H34.3031H34.0031V57.6898V59.6544ZM40.1104 59.6544V59.9544H40.4104H42.375H42.675V59.6544V57.6898V57.3898H42.375H40.4104H40.1104V57.6898V59.6544ZM46.175 59.6544V59.9544H46.475H48.4395H48.7395V59.6544V57.6898V57.3898H48.4395H46.475H46.175V57.6898V59.6544ZM52.2822 59.6544V59.9544H52.5822H54.5468H54.8468V59.6544V57.6898V57.3898H54.5468H52.5822H52.2822V57.6898V59.6544ZM58.3468 59.6544V59.9544H58.6468H60.6114H60.9114V59.6544V57.6898V57.3898H60.6114H58.6468H58.3468V57.6898V59.6544ZM33.0659 53.6311L33.2781 53.8432L33.4902 53.6311L36.0114 51.1099L38.5326 53.6311L38.7447 53.8432L38.9569 53.6311L39.5975 52.9904L39.8096 52.7783L39.5975 52.5662L37.0763 50.045L39.5975 47.5238L39.8096 47.3117L39.5975 47.0995L38.9569 46.4589L38.7447 46.2468L38.5326 46.4589L36.0114 48.9801L33.4902 46.4589L33.2781 46.2468L33.0659 46.4589L32.4253 47.0995L32.2132 47.3117L32.4253 47.5238L34.9465 50.045L32.4253 52.5662L32.2132 52.7783L32.4253 52.9904L33.0659 53.6311ZM48.0164 51.1526C48.4126 51.9028 48.9152 52.4956 49.5292 52.9186C50.2265 53.3989 51.0494 53.6335 51.9843 53.6335C53.0205 53.6335 54.0847 53.2904 55.1725 52.6289C56.0285 52.1084 56.7667 51.4562 57.3865 50.6738C57.4716 51.3299 57.6364 51.9192 57.8851 52.4382C58.2313 53.1606 58.7155 53.6335 59.3729 53.6335C59.9059 53.6335 60.4411 53.4334 60.9733 53.0684C61.4887 52.715 62.12 52.1916 62.8649 51.504L63.1162 51.272L62.8535 51.0531L62.0847 50.4124L61.8574 50.223L61.6649 50.4477C61.1571 51.0401 60.7541 51.4171 60.4524 51.6057C60.1861 51.7722 59.8913 51.9351 59.5676 52.0944C59.2993 51.6475 59.1195 51.1614 59.0278 50.6342C58.9207 50.0186 58.918 49.1672 59.0307 48.0683L59.0529 47.8519L58.8541 47.7636L58.0853 47.4219L57.8421 47.3138L57.7058 47.5424C56.8365 49.0006 55.8978 50.123 54.8941 50.9205C53.8938 51.7152 52.9113 52.0939 51.9416 52.0939C51.3447 52.0939 50.8301 51.9329 50.3863 51.616C49.9937 51.3355 49.6442 50.924 49.3441 50.3677C52.1646 48.5928 54.416 46.574 56.0907 44.3082C57.8143 41.9762 58.6906 39.6018 58.6906 37.1898C58.6906 35.4956 58.318 34.0913 57.5463 33.0018C56.7642 31.8976 55.6837 31.3377 54.3333 31.3377C52.0496 31.3377 50.2279 32.6969 48.8579 35.2767C47.4894 37.8536 46.8156 41.1595 46.8156 45.1762C46.8156 46.0997 46.8733 46.9613 46.9895 47.7606C47.0919 48.4644 47.2287 49.1096 47.4008 49.6952C46.8137 50.0448 46.1977 50.3777 45.5528 50.6938C44.8289 51.0487 44.0978 51.3965 43.3596 51.7372L43.101 51.8565L43.2068 52.121L43.5485 52.9752L43.6606 53.2555L43.9402 53.1416C44.7152 52.8258 45.4689 52.4885 46.2013 52.1295C46.8325 51.8201 47.4375 51.4944 48.0164 51.1526ZM54.8189 43.3738C53.3172 45.3851 51.2963 47.2111 48.749 48.8488C48.6353 48.3997 48.5458 47.9109 48.4811 47.382C48.3974 46.6987 48.3552 45.9353 48.3552 45.0908C48.3552 41.4757 48.9345 38.5288 50.0749 36.2342C51.2157 33.9386 52.6422 32.8773 54.3333 32.8773C55.1598 32.8773 55.8251 33.25 56.346 34.0444C56.8747 34.8507 57.151 35.9061 57.151 37.2325C57.151 39.23 56.3857 41.2755 54.8189 43.3738Z" fill="currentColor" stroke="currentColor" stroke-width="0.6"/>
</g>
</g>
</svg>
