<svg width="111" height="111" viewBox="0 0 111 111" fill="none" xmlns="http://www.w3.org/2000/svg">
<rect width="111" height="111" fill="#F9D557"/>
<path d="M55.073 42.7848C52.582 42.7825 50.1463 43.5191 48.074 44.9013C46.0017 46.2835 44.3859 48.2493 43.431 50.55C42.4762 52.8507 42.2251 55.383 42.7097 57.8264C43.1942 60.2698 44.3926 62.5145 46.1532 64.2767C47.9137 66.039 50.1574 67.2394 52.6004 67.7262C55.0433 68.213 57.5757 67.9644 59.8773 67.0116C62.1789 66.0589 64.1462 64.445 65.5304 62.3739C66.9145 60.3029 67.6534 57.8679 67.6534 55.3769C67.6534 52.0393 66.3283 48.8383 63.9694 46.4771C61.6104 44.116 58.4106 42.7879 55.073 42.7848ZM54.1367 47.7585C54.1367 47.5102 54.2354 47.2721 54.411 47.0965C54.5865 46.9209 54.8247 46.8223 55.073 46.8223C55.3213 46.8223 55.5594 46.9209 55.735 47.0965C55.9105 47.2721 56.0092 47.5102 56.0092 47.7585V52.0768C56.0092 52.3251 55.9105 52.5632 55.735 52.7388C55.5594 52.9144 55.3213 53.013 55.073 53.013C54.8247 53.013 54.5865 52.9144 54.411 52.7388C54.2354 52.5632 54.1367 52.3251 54.1367 52.0768V47.7585ZM55.073 61.8017C53.5231 61.7778 52.032 61.2053 50.8643 60.1859C49.6967 59.1665 48.9281 57.7663 48.6952 56.2339C48.4622 54.7015 48.78 53.1362 49.592 51.8159C50.404 50.4956 51.6576 49.5058 53.1303 49.0224V51.4916C52.2681 51.9273 51.578 52.6408 51.1713 53.517C50.7647 54.3932 50.6653 55.3809 50.8892 56.3205C51.1131 57.2602 51.6472 58.0969 52.4053 58.6956C53.1634 59.2943 54.1011 59.6199 55.0671 59.6199C56.0331 59.6199 56.9708 59.2943 57.7289 58.6956C58.487 58.0969 59.0211 57.2602 59.245 56.3205C59.4689 55.3809 59.3695 54.3932 58.9629 53.517C58.5562 52.6408 57.8661 51.9273 57.0039 51.4916V49.0224C58.4929 49.4925 59.7651 50.4789 60.5914 51.8038C61.4177 53.1287 61.7437 54.7051 61.5109 56.2491C61.278 57.7931 60.5015 59.2032 59.3212 60.2255C58.1409 61.2478 56.6344 61.815 55.073 61.8251V61.8017ZM40.6201 55.2599C40.618 54.9993 40.5183 54.749 40.3406 54.5583C40.163 54.3677 39.9203 54.2506 39.6605 54.2301H34.1486C33.8856 54.2476 33.6387 54.3631 33.4567 54.5537C33.2747 54.7444 33.1708 54.9964 33.1655 55.2599C33.1706 55.5247 33.2741 55.778 33.4558 55.9706C33.6376 56.1632 33.8845 56.2811 34.1486 56.3015H39.6605C39.9213 56.2782 40.1641 56.1586 40.3415 55.966C40.5189 55.7735 40.6183 55.5217 40.6201 55.2599ZM76.0676 54.2301H70.4971C70.2352 54.2478 69.9897 54.3637 69.8096 54.5546C69.6295 54.7455 69.5281 54.9974 69.5258 55.2599C69.5279 55.5236 69.6289 55.7769 69.8087 55.9697C69.9886 56.1626 70.2342 56.281 70.4971 56.3015H76.0676C76.3295 56.2784 76.5736 56.1592 76.753 55.9669C76.9323 55.7746 77.0341 55.5228 77.0389 55.2599C77.0339 54.9983 76.9316 54.7479 76.7521 54.5575C76.5725 54.3671 76.3285 54.2504 76.0676 54.2301ZM55.073 40.8188C55.3346 40.8138 55.585 40.7115 55.7754 40.5319C55.9658 40.3524 56.0825 40.1084 56.1028 39.8475V34.3355C56.1028 34.0624 55.9943 33.8004 55.8012 33.6073C55.608 33.4142 55.3461 33.3057 55.073 33.3057C54.7998 33.3057 54.5379 33.4142 54.3448 33.6073C54.1516 33.8004 54.0431 34.0624 54.0431 34.3355V39.8475C54.0634 40.1084 54.1801 40.3524 54.3705 40.5319C54.5609 40.7115 54.8113 40.8138 55.073 40.8188Z" fill="white"/>
<path d="M55.073 69.713C54.8114 69.7181 54.561 69.8203 54.3706 69.9999C54.1802 70.1795 54.0635 70.4235 54.0432 70.6844V76.1963C54.0432 76.4695 54.1517 76.7314 54.3448 76.9245C54.5379 77.1177 54.7999 77.2262 55.073 77.2262C55.3461 77.2262 55.6081 77.1177 55.8012 76.9245C55.9943 76.7314 56.1028 76.4695 56.1028 76.1963V70.6844C56.0825 70.4235 55.9658 70.1795 55.7754 69.9999C55.5851 69.8203 55.3347 69.7181 55.073 69.713ZM36.3955 45.7693L41.1819 48.5078C41.4187 48.6178 41.6881 48.6349 41.9369 48.5556C42.1856 48.4764 42.3956 48.3066 42.5251 48.08C42.6546 47.8533 42.6943 47.5862 42.6363 47.3317C42.5782 47.0772 42.4267 46.8537 42.2118 46.7056L37.4488 43.9671C37.2107 43.8552 36.9394 43.8363 36.6882 43.9143C36.437 43.9922 36.224 44.1614 36.0912 44.3884C35.9589 44.6147 35.9167 44.8825 35.9731 45.1384C36.0295 45.3944 36.1804 45.6197 36.3955 45.7693ZM73.7271 64.7628L68.9758 62.0244C68.739 61.9144 68.4696 61.8973 68.2208 61.9765C67.9721 62.0558 67.7621 62.2255 67.6326 62.4522C67.5031 62.6789 67.4634 62.9459 67.5214 63.2005C67.5795 63.455 67.731 63.6785 67.946 63.8266L72.7324 66.565C72.9658 66.6504 73.2221 66.6495 73.455 66.5624C73.6878 66.4753 73.8818 66.3078 74.002 66.0901C74.1221 65.8725 74.1604 65.6191 74.11 65.3756C74.0596 65.1322 73.9238 64.9149 73.7271 64.7628ZM62.2468 42.7266C62.477 42.8513 62.745 42.8868 62.9998 42.8264C63.2545 42.7659 63.478 42.6138 63.6277 42.399L66.3661 37.6126C66.4724 37.3785 66.4894 37.1137 66.414 36.8679C66.3385 36.6222 66.1758 36.4126 65.9565 36.2785C65.7245 36.1531 65.4546 36.1171 65.1979 36.1775C64.9412 36.2379 64.7156 36.3905 64.5639 36.6061L61.8372 41.3925C61.7309 41.6266 61.7139 41.8914 61.7893 42.1372C61.8647 42.3829 62.0274 42.5926 62.2468 42.7266ZM47.8993 67.8055C47.6691 67.6808 47.401 67.6453 47.1463 67.7058C46.8915 67.7662 46.668 67.9184 46.5183 68.1332L43.7799 72.9196C43.6434 73.157 43.6067 73.439 43.678 73.7034C43.7494 73.9679 43.9228 74.1932 44.1603 74.3298C44.3977 74.4663 44.6796 74.503 44.9441 74.4316C45.2086 74.3603 45.4339 74.1869 45.5704 73.9494L48.3089 69.163C48.4218 68.9264 48.4425 68.6561 48.3667 68.405C48.291 68.154 48.1243 67.9402 47.8993 67.8055ZM46.4949 42.4107C46.6315 42.6481 46.8568 42.8216 47.1213 42.8929C47.3857 42.9642 47.6677 42.9276 47.9051 42.791C48.1426 42.6544 48.316 42.4292 48.3873 42.1647C48.4587 41.9002 48.422 41.6183 48.2854 41.3808L45.5353 36.6061C45.3857 36.3913 45.1621 36.2392 44.9074 36.1787C44.6527 36.1183 44.3846 36.1538 44.1544 36.2785C43.9294 36.4131 43.7627 36.6269 43.6869 36.878C43.6112 37.129 43.6318 37.3993 43.7448 37.636L46.4949 42.4107ZM63.6628 68.1215C63.5147 67.9065 63.2912 67.755 63.0366 67.697C62.7821 67.6389 62.5151 67.6786 62.2884 67.8081C62.0617 67.9377 61.8919 68.1476 61.8127 68.3964C61.7335 68.6451 61.7506 68.9146 61.8606 69.1513L64.6107 73.926C64.6783 74.0436 64.7684 74.1467 64.8759 74.2294C64.9834 74.3122 65.1061 74.3729 65.237 74.4082C65.368 74.4436 65.5046 74.4527 65.6391 74.4353C65.7736 74.4178 65.9033 74.374 66.0209 74.3064C66.1384 74.2387 66.2415 74.1486 66.3243 74.0412C66.407 73.9337 66.4678 73.811 66.5031 73.68C66.5384 73.5491 66.5476 73.4125 66.5301 73.278C66.5126 73.1435 66.4688 73.0137 66.4012 72.8962L63.6628 68.1215ZM68.9524 48.4727L73.7271 45.7342C73.9421 45.5861 74.0936 45.3626 74.1516 45.1081C74.2097 44.8536 74.17 44.5865 74.0405 44.3598C73.9109 44.1332 73.701 43.9634 73.4522 43.8842C73.2035 43.8049 72.934 43.822 72.6973 43.932L67.8758 46.6822C67.7582 46.7498 67.6551 46.8399 67.5724 46.9474C67.4896 47.0548 67.4288 47.1775 67.3935 47.3085C67.3582 47.4394 67.349 47.576 67.3665 47.7105C67.384 47.845 67.4278 47.9748 67.4954 48.0923C67.563 48.2099 67.6532 48.313 67.7606 48.3957C67.8681 48.4785 67.9908 48.5392 68.1217 48.5746C68.2527 48.6099 68.3893 48.6191 68.5238 48.6016C68.6583 48.5841 68.788 48.5403 68.9056 48.4727H68.9524ZM41.1819 62.0244L36.4072 64.7628C36.1914 64.9146 36.0396 65.141 35.9812 65.3983C35.9229 65.6556 35.9621 65.9254 36.0912 66.1554C36.2238 66.3796 36.4354 66.546 36.6846 66.6218C36.9337 66.6976 37.2021 66.6773 37.4371 66.565L42.2118 63.8149C42.4306 63.6687 42.5869 63.4459 42.6497 63.1904C42.7125 62.9348 42.6773 62.6649 42.5511 62.434C42.4143 62.2081 42.1985 62.0411 41.9454 61.9654C41.6924 61.8897 41.4203 61.9107 41.1819 62.0244Z" fill="white"/>
<path d="M83.0889 28.0162L81.0176 30.2982C77.5652 27.3021 73.4672 25.1442 69.0434 23.9931C64.6195 22.842 59.9895 22.7288 55.5146 23.6623C51.0398 24.5958 46.8412 26.5507 43.2465 29.3745C39.6519 32.1984 36.7584 35.8147 34.7919 39.9412C36.9877 36.2684 39.9518 33.1139 43.481 30.6939C47.0101 28.274 51.0208 26.6458 55.2382 25.921C59.4555 25.1963 63.7797 25.3921 67.9142 26.4951C72.0488 27.598 75.896 29.582 79.1919 32.3111L77.0971 34.6516C76.8119 34.9819 76.665 35.4095 76.6867 35.8453C76.7085 36.2812 76.8974 36.6919 77.2142 36.9922L81.8953 41.2285L83.2059 39.7891L87.0795 43.2999L88.3551 41.8956L84.4815 38.3848L87.5828 34.9676L91.4797 38.4784L92.7553 37.0741L88.8583 33.5633L90.1105 32.1355L85.4295 27.8875C85.1002 27.5981 84.6706 27.4495 84.2329 27.4736C83.7952 27.4977 83.3845 27.6925 83.0889 28.0162Z" fill="white"/>
<path d="M78.0569 10.5325C76.2196 10.9538 71.9599 11.7028 69.947 13.9263C68.1448 15.8923 67.7001 18.502 69.1278 22.2235C69.1278 22.2235 77.8346 18.8882 79.6602 12.4868C79.2612 14.9412 78.1674 17.2298 76.5082 19.0819C74.849 20.934 72.6939 22.2719 70.2981 22.9373C70.2981 22.9373 75.4004 25.8279 79.5315 20.2574C83.6625 14.6869 81.3103 7.87598 81.3103 7.87598C80.5487 9.09618 79.4048 10.0302 78.0569 10.5325Z" fill="white"/>
<path d="M25.9564 82.984L28.0863 80.7488C31.5386 83.7449 35.6366 85.9028 40.0605 87.0539C44.4843 88.205 49.1144 88.3182 53.5892 87.3847C58.064 86.4512 62.2626 84.4963 65.8573 81.6725C69.4519 78.8486 72.3454 75.2323 74.3119 71.1057C72.1161 74.7785 69.152 77.9331 65.6228 80.3531C62.0937 82.773 58.083 84.4012 53.8656 85.1259C49.6483 85.8507 45.3241 85.6549 41.1896 84.5519C37.055 83.4489 33.2079 81.4649 29.9119 78.7359L32.0067 76.3954C32.2932 76.0648 32.4399 75.6358 32.4159 75.199C32.3919 74.7623 32.199 74.3519 31.8779 74.0548L27.1969 69.8067L25.8862 71.2579L22.0126 67.7471L20.6785 69.0461L24.5755 72.5569L21.4508 76.0677L17.5539 72.5569L16.2783 73.9612L20.1753 77.472L18.888 78.888L23.569 83.1361C23.7347 83.2851 23.9284 83.3996 24.1389 83.4727C24.3494 83.5459 24.5723 83.5762 24.7947 83.5621C25.0171 83.5479 25.2344 83.4895 25.4339 83.3902C25.6333 83.2909 25.811 83.1528 25.9564 82.984Z" fill="white"/>
<path d="M30.9766 100.444C32.8139 100.035 37.0737 99.2739 39.0866 97.0504C40.8888 95.0961 41.3335 92.4864 39.8941 88.7532C39.8941 88.7532 31.199 92.0885 29.3616 98.4899C29.7627 96.0376 30.8575 93.7515 32.5165 91.9017C34.1755 90.0518 36.3295 88.7156 38.7238 88.0511C38.7238 88.0511 33.6214 85.1488 29.4904 90.731C25.3593 96.3132 27.6765 103.124 27.6765 103.124C28.4495 101.89 29.6102 100.948 30.9766 100.444Z" fill="white"/>
<path d="M28.0161 26.9164L30.2982 28.9761C27.302 32.4284 25.1442 36.5264 23.9931 40.9503C22.842 45.3741 22.7287 50.0041 23.6622 54.479C24.5957 58.9538 26.5506 63.1524 29.3745 66.7471C32.1983 70.3417 35.8146 73.2352 39.9412 75.2017C36.2684 73.0059 33.1138 70.0418 30.6939 66.5126C28.2739 62.9835 26.6457 58.9728 25.921 54.7554C25.1962 50.5381 25.392 46.2139 26.495 42.0794C27.598 37.9448 29.582 34.0977 32.311 30.8017L34.6516 32.8965C34.9819 33.1817 35.4094 33.3287 35.8453 33.3069C36.2811 33.2851 36.6919 33.0962 36.9921 32.7794L41.2285 28.0984L39.789 26.776L43.2998 22.9024L41.8955 21.6268L38.3847 25.5004L34.9675 22.3991L38.4783 18.5022L37.074 17.2266L33.5632 21.1236L32.1355 19.8948L27.8874 24.5759C27.6009 24.9064 27.4541 25.3354 27.4782 25.7722C27.5022 26.2089 27.6951 26.6193 28.0161 26.9164Z" fill="white"/>
<path d="M10.5324 31.9251C10.9537 33.7624 11.7027 38.0222 13.9262 40.0351C15.8923 41.8373 18.502 42.282 22.2234 40.8542C22.2234 40.8542 18.8881 32.1474 12.4868 30.3218C14.9395 30.7249 17.2261 31.8202 19.0775 33.4787C20.9288 35.1373 22.268 37.2902 22.9373 39.684C22.9373 39.684 25.8278 34.5816 20.2574 30.4506C14.6869 26.3195 7.87592 28.6718 7.87592 28.6718C9.09612 29.4334 10.0301 30.5772 10.5324 31.9251Z" fill="white"/>
<path d="M82.9839 84.0255L80.7487 81.919C83.7472 78.4676 85.907 74.3697 87.0595 69.9453C88.2119 65.521 88.3258 60.8901 87.3921 56.4145C86.4585 51.9389 84.5026 47.7398 81.6774 44.1452C78.8521 40.5507 75.234 37.658 71.1057 35.6934C74.7785 37.8892 77.933 40.8533 80.353 44.3824C82.773 47.9116 84.4011 51.9223 85.1259 56.1396C85.8506 60.3569 85.6548 64.6811 84.5518 68.8157C83.4489 72.9502 81.4649 76.7974 78.7358 80.0934L76.3953 78.0103C76.0662 77.7223 75.6381 77.5735 75.2014 77.5954C74.7646 77.6172 74.3535 77.8079 74.0548 78.1273L69.8067 82.8084L71.2578 84.1191L67.747 88.0044L69.046 89.3151L72.5568 85.4298L76.0676 88.531L72.5568 92.4514L73.9611 93.727L77.4719 89.83L78.888 91.1173L83.136 86.4362C83.2872 86.2693 83.4034 86.0738 83.4778 85.8613C83.5521 85.6487 83.5831 85.4235 83.5689 85.1987C83.5547 84.974 83.4957 84.7544 83.3952 84.5529C83.2947 84.3514 83.1549 84.172 82.9839 84.0255Z" fill="white"/>
<path d="M100.444 79.005C100.035 77.1794 99.2739 72.9079 97.0504 70.895C95.096 69.1045 92.4863 68.6598 88.7532 70.0876C88.7532 70.0876 92.0884 78.7944 98.4898 80.62C96.0376 80.2189 93.7514 79.1241 91.9016 77.4651C90.0518 75.8061 88.7156 73.6521 88.051 71.2578C88.051 71.2578 85.1487 76.3602 90.7309 80.503C96.3131 84.6457 103.124 82.2701 103.124 82.2701C101.899 81.5027 100.958 80.3562 100.444 79.005Z" fill="white"/>
</svg>
