<svg width="128" height="128" viewBox="0 0 128 128" fill="none"
  xmlns="http://www.w3.org/2000/svg">
  <path fill-rule="evenodd" clip-rule="evenodd" d="M64 116C92.7188 116 116 92.7188 116 64C116 35.2812 92.7188 12 64 12C35.2812 12 12 35.2812 12 64C12 92.7188 35.2812 116 64 116ZM64 118C93.8234 118 118 93.8234 118 64C118 34.1766 93.8234 10 64 10C34.1766 10 10 34.1766 10 64C10 93.8234 34.1766 118 64 118Z" fill="currentColor"/>
  <path fill-rule="evenodd" clip-rule="evenodd" d="M63.9102 65.91L42 87.8202L40.5858 86.406L62.4959 64.4958L40 41.9999L41.4142 40.5857L63.9102 63.0816L86.4063 40.5854L87.8205 41.9997L65.3244 64.4958L87.2347 86.4062L85.8205 87.8204L63.9102 65.91Z" fill="currentColor"/>
</svg>
