<svg width="96" height="98" viewBox="0 0 96 98" fill="none" xmlns="http://www.w3.org/2000/svg">
<path d="M59.4473 60.5798C59.2028 60.7662 58.9443 60.9315 58.7156 61.1426C53.9275 65.505 48.0208 68.4504 41.6554 69.6498C39.0844 70.1425 36.4657 70.3408 33.8499 70.2408C26.512 69.9796 19.4402 67.4263 13.6279 62.9396C7.81568 58.4529 3.55493 52.2581 1.44417 45.2255C0.706591 42.8036 0.249248 40.305 0.0811048 37.7788C-0.581959 27.0203 2.8424 17.7638 10.458 10.1324C15.4248 5.14096 21.4574 2.02262 28.3747 0.656045C30.9019 0.148714 33.4792 -0.0649297 36.0554 0.0193631C45.0516 0.351774 52.8659 3.56684 59.391 9.78064C64.641 14.7738 67.9809 20.8786 69.4917 27.9648C70.1322 30.9684 70.3583 34.0455 70.1636 37.1105C69.6219 45.7367 66.374 53.1923 60.4199 59.477C60.2756 59.6454 60.1405 59.8215 60.0154 60.0046L59.4473 60.5798ZM68.6967 35.1529C68.6967 16.5872 53.6609 1.56006 35.1039 1.54599C16.7263 1.53016 1.511 16.4254 1.511 35.1547C1.52683 53.935 16.7703 68.5717 34.8031 68.7247C53.1825 68.883 68.6545 54.0441 68.6897 35.1529H68.6967Z" fill="currentColor"/>
<path d="M59.4473 60.5797L60.0224 60.0046C60.2739 59.8164 60.281 59.8111 60.4938 60.0257C61.076 60.6166 61.6528 61.2128 62.2315 61.8073L77.9762 77.9882L94.3945 94.8585C94.8359 95.3122 95.2739 95.7643 95.7188 96.218C95.8261 96.3288 95.9282 96.4431 96.0073 96.5276L94.9643 97.6479L59.1782 60.8892L59.4473 60.5797Z" fill="currentColor"/>
<path d="M60.4444 35.8792H58.9547C58.8351 29.5476 56.6348 24.0461 52.1464 19.5506C47.658 15.0552 42.16 12.8461 35.8037 12.7142V11.2667C48.3667 10.878 60.5587 21.7175 60.4444 35.8792Z" fill="currentColor"/>
</svg>