<?xml version="1.0" encoding="UTF-8"?>
<svg id="Layer_1" xmlns="http://www.w3.org/2000/svg" viewBox="0 0 16 16">
  <defs>
    <style>
      .cls-1 {
        fill: #00a58d;
      }
    </style>
  </defs>
  <path class="cls-1" d="M9.93,10.39c-.21.57-.75.98-1.4.98-.82,0-1.49-.67-1.49-1.49s.67-1.49,1.49-1.49c.64,0,1.19.41,1.4.98h5.95c.11-.65.15-1.32.09-2.01h0s-3.07,0-3.07,0c-.21.57-.75.98-1.4.98-.82,0-1.49-.67-1.49-1.49s.67-1.49,1.49-1.49c.64,0,1.19.41,1.4.98h2.93c-.14-.65-.35-1.27-.64-1.85h-4.68l-2.87,2.87H.03s0,0,0,0c-.06.69-.02,1.36.09,2.01h4.81l2.98,2.98h6.8c.39-.6.71-1.26.93-1.97h-5.71Z"/>
  <path class="cls-1" d="M7.49,13.37H2.07c1.46,1.62,3.58,2.63,5.93,2.63s4.47-1.02,5.93-2.63h-6.44Z"/>
  <path class="cls-1" d="M10.09,3.48h4.51c-1.44-2.1-3.86-3.48-6.6-3.48S2.84,1.38,1.4,3.48h3.45c.21-.57.75-.98,1.4-.98.82,0,1.49.67,1.49,1.49s-.67,1.49-1.49,1.49c-.64,0-1.19-.41-1.4-.98H.81c-.28.58-.5,1.2-.64,1.85h7.05l2.87-2.87Z"/>
  <path class="cls-1" d="M4.51,10.39H.36c.22.7.53,1.36.93,1.97h5.19l-1.97-1.97Z"/>
</svg>