<svg width="479" height="60" viewBox="0 0 479 60" fill="none" xmlns="http://www.w3.org/2000/svg">
<path d="M380.693 12.9881C380.693 12.6564 380.93 12.4194 381.262 12.4194H388.276C388.608 12.4194 388.845 12.6564 388.845 12.9881V49.3372C388.845 49.6689 388.608 49.9059 388.276 49.9059H381.262C380.93 49.9059 380.693 49.6689 380.693 49.3372V12.9881Z" fill="white"/>
<path d="M396.333 31.1388C396.333 25.5941 396.57 23.4615 397.376 20.9023C399.319 14.8363 404.484 11.8032 411.166 11.8032C418.18 11.8032 422.73 15.2628 424.483 19.8123C424.626 20.1441 424.578 20.4758 424.246 20.618L418.37 23.0823C417.991 23.1771 417.706 23.0823 417.612 22.798C416.095 20.2863 414.2 18.9593 411.119 18.9593C407.944 18.9593 405.953 20.5706 405.1 23.1297C404.674 24.4567 404.484 26.2102 404.484 31.1388C404.484 36.0675 404.626 37.8684 405.1 39.1954C405.906 41.8019 407.944 43.3184 411.214 43.3184C414.01 43.3184 416.427 41.9441 417.233 39.4797C417.517 38.5319 417.659 37.3945 417.659 35.7832C417.659 35.5462 417.564 35.4515 417.327 35.4515H412.304C411.972 35.4515 411.735 35.2145 411.735 34.8828V29.6223C411.735 29.2906 411.972 29.0536 412.304 29.0536H425.194C425.526 29.0536 425.763 29.2906 425.763 29.6223V32.7028C425.763 36.0201 425.479 39.1006 424.815 41.1384C422.92 47.1571 417.754 50.5219 411.166 50.5219C404.484 50.5219 399.319 47.4888 397.376 41.4227C396.523 38.8162 396.333 36.731 396.333 31.1388Z" fill="white"/>
<path d="M433.298 12.9881C433.298 12.6564 433.535 12.4194 433.867 12.4194H440.88C441.212 12.4194 441.449 12.6564 441.449 12.9881V49.3372C441.449 49.6689 441.212 49.9059 440.88 49.9059H433.867C433.535 49.9059 433.298 49.6689 433.298 49.3372V12.9881Z" fill="white"/>
<path d="M449.885 12.9881C449.885 12.6564 450.122 12.4194 450.453 12.4194H457.041C457.42 12.4194 457.752 12.5616 457.989 12.9881L471.211 36.5416H471.495V12.9881C471.495 12.6564 471.732 12.4194 472.064 12.4194H478.272C478.604 12.4194 478.841 12.6564 478.841 12.9881V49.3372C478.841 49.6689 478.604 49.9059 478.272 49.9059H471.732C471.306 49.9059 471.021 49.7637 470.784 49.3372L457.515 25.8312H457.23V49.3372C457.23 49.6689 456.993 49.9059 456.662 49.9059H450.453C450.122 49.9059 449.885 49.6689 449.885 49.3372V12.9881Z" fill="white"/>
<path d="M92.0811 12.9408C92.0811 12.609 92.3181 12.3721 92.6498 12.3721H116.677C117.009 12.3721 117.246 12.609 117.246 12.9408V18.8173C117.246 19.149 117.009 19.386 116.677 19.386H100.564C100.327 19.386 100.232 19.4808 100.232 19.7177V27.1581C100.232 27.3951 100.327 27.4899 100.564 27.4899H114.023C114.355 27.4899 114.592 27.7268 114.592 28.0586V33.8877C114.592 34.2194 114.355 34.4564 114.023 34.4564H100.469C100.232 34.4564 100.138 34.5512 100.138 34.7881V42.5603C100.138 42.7972 100.232 42.892 100.469 42.892H116.582C116.914 42.892 117.151 43.129 117.151 43.4607V49.2898C117.151 49.6216 116.914 49.8585 116.582 49.8585H92.555C92.2233 49.8585 91.9863 49.6216 91.9863 49.2898V12.9408H92.0811Z" fill="white"/>
<path d="M124.544 12.9408C124.544 12.609 124.781 12.3721 125.113 12.3721H131.7C132.079 12.3721 132.411 12.5142 132.648 12.9408L145.87 36.4942H146.154V12.9408C146.154 12.609 146.391 12.3721 146.723 12.3721H152.931C153.263 12.3721 153.5 12.609 153.5 12.9408V49.2898C153.5 49.6216 153.263 49.8585 152.931 49.8585H146.391C145.965 49.8585 145.68 49.7164 145.443 49.2898L132.174 25.7838H131.89V49.2898C131.89 49.6216 131.653 49.8585 131.321 49.8585H125.113C124.781 49.8585 124.544 49.6216 124.544 49.2898V12.9408Z" fill="white"/>
<path d="M161.983 12.9408C161.983 12.609 162.22 12.3721 162.552 12.3721H186.579C186.911 12.3721 187.148 12.609 187.148 12.9408V18.8173C187.148 19.149 186.911 19.386 186.579 19.386H170.466C170.229 19.386 170.135 19.4808 170.135 19.7177V27.1581C170.135 27.3951 170.229 27.4899 170.466 27.4899H183.878C184.21 27.4899 184.447 27.7268 184.447 28.0586V33.8877C184.447 34.2194 184.21 34.4564 183.878 34.4564H170.419C170.182 34.4564 170.087 34.5512 170.087 34.7881V42.5603C170.087 42.7972 170.182 42.892 170.419 42.892H186.532C186.864 42.892 187.101 43.129 187.101 43.4607V49.2898C187.101 49.6216 186.864 49.8585 186.532 49.8585H162.552C162.22 49.8585 161.983 49.6216 161.983 49.2898V12.9408Z" fill="white"/>
<path d="M229.042 31.1388C229.042 25.5941 229.279 23.4615 230.085 20.9023C232.028 14.8363 237.193 11.8032 243.875 11.8032C250.889 11.8032 255.439 15.2628 257.192 19.8123C257.335 20.1441 257.287 20.4758 256.955 20.618L251.079 23.0823C250.7 23.1771 250.415 23.0823 250.321 22.798C248.804 20.2863 246.908 18.9593 243.828 18.9593C240.653 18.9593 238.662 20.5706 237.809 23.1297C237.383 24.4567 237.193 26.2102 237.193 31.1388C237.193 36.0675 237.335 37.8684 237.809 39.1954C238.615 41.8019 240.653 43.3184 243.923 43.3184C246.719 43.3184 249.136 41.9441 249.942 39.4797C250.226 38.5319 250.368 37.3945 250.368 35.7832C250.368 35.5462 250.273 35.4515 250.036 35.4515H245.013C244.681 35.4515 244.444 35.2145 244.444 34.8828V29.5749C244.444 29.2432 244.681 29.0062 245.013 29.0062H257.903C258.235 29.0062 258.472 29.2432 258.472 29.5749V32.6554C258.472 35.9728 258.188 39.0532 257.524 41.091C255.628 47.1097 250.463 50.4745 243.875 50.4745C237.193 50.4745 232.028 47.4414 230.085 41.3754C229.232 38.7688 229.042 36.6836 229.042 31.1388Z" fill="white"/>
<path d="M273.731 49.8585C273.4 49.8585 273.163 49.6216 273.163 49.2898V34.9303L262.073 12.9408C261.978 12.6564 262.073 12.3721 262.452 12.3721H269.656C270.035 12.3721 270.319 12.5142 270.462 12.9408L277.238 26.5894H277.381L284.158 12.9408C284.3 12.5616 284.584 12.3721 284.963 12.3721H291.882C292.261 12.3721 292.451 12.6564 292.261 12.9408L281.172 34.9303V49.2898C281.172 49.6216 280.935 49.8585 280.603 49.8585H273.731Z" fill="white"/>
<path d="M21.0417 29.3853H0V30.6174H21.0417V29.3853Z" fill="white"/>
<path d="M34.2639 16.3525H0V17.5847H34.2639V16.3525Z" fill="white"/>
<path d="M27.5343 42.1812H0V43.4133H27.5343V42.1812Z" fill="white"/>
<path d="M70.3762 19.3381H18.625V14.8359H68.9071L70.3762 19.3381Z" fill="white"/>
<path d="M71.9872 31.8498H16.6816V27.395H71.7503L71.9872 31.8498Z" fill="white"/>
<path d="M67.864 45.6403H19.7145L17.7715 41.1855H70.7075L67.864 45.6403Z" fill="white"/>
<path d="M51.8931 25.5939C56.5258 25.5939 60.2814 21.8383 60.2814 17.2056C60.2814 12.5729 56.5258 8.81738 51.8931 8.81738C47.2604 8.81738 43.5049 12.5729 43.5049 17.2056C43.5049 21.8383 47.2604 25.5939 51.8931 25.5939Z" fill="white"/>
<path d="M30.8043 38.2472C35.437 38.2472 39.1925 34.4917 39.1925 29.859C39.1925 25.2263 35.437 21.4707 30.8043 21.4707C26.1716 21.4707 22.416 25.2263 22.416 29.859C22.416 34.4917 26.1716 38.2472 30.8043 38.2472Z" fill="white"/>
<path d="M51.8931 51.5646C56.5258 51.5646 60.2814 47.809 60.2814 43.1763C60.2814 38.5436 56.5258 34.7881 51.8931 34.7881C47.2604 34.7881 43.5049 38.5436 43.5049 43.1763C43.5049 47.809 47.2604 51.5646 51.8931 51.5646Z" fill="white"/>
<path d="M43.7893 60C38.908 60 34.1215 58.8152 29.8563 56.5404C15.2124 48.8157 9.57282 30.6648 17.2502 16.0209C24.9276 1.37704 43.1258 -4.26252 57.7697 3.46225C72.4136 11.187 78.0532 29.3379 70.3284 43.9818C66.6319 51.0431 60.2814 56.3035 52.6988 58.6257C49.808 59.5261 46.7749 60 43.7893 60ZM43.8367 3.50964C29.1928 3.50964 17.345 15.3101 17.345 29.954C17.345 44.5978 29.1454 56.4457 43.7893 56.4457C53.6467 56.4457 62.651 51.0431 67.248 42.3231C74.0723 29.3853 69.0962 13.367 56.1584 6.54268C52.3671 4.55225 48.1493 3.50964 43.8367 3.50964Z" fill="white"/>
<path d="M329.464 37.3469C329.606 36.0674 329.701 34.2191 329.701 31.1387C329.701 28.3426 329.653 26.5417 329.511 25.3096C329.606 26.7787 329.701 28.6743 329.701 31.0913C329.701 33.7926 329.606 35.8304 329.464 37.3469Z" fill="white"/>
<path d="M317.332 39.1955C316.905 37.8685 316.716 36.0676 316.716 31.1389C316.716 26.2103 316.858 24.4094 317.332 23.0824C318.138 20.4759 320.128 18.9594 323.208 18.9594C323.73 18.9594 324.204 19.0068 324.678 19.1016C323.066 16.2581 320.697 14.1255 316.858 14.1255C315.578 14.1255 314.062 14.5046 313.067 15.2629C311.503 16.6846 310.271 18.5803 309.512 20.9024C308.707 23.509 308.47 25.5942 308.47 31.1389C308.47 36.6837 308.707 38.8163 309.512 41.3755C310.223 43.6028 311.361 45.4037 312.877 46.8254C313.967 47.2046 315.152 47.3941 316.526 47.3941C320.27 47.3941 322.971 45.925 324.583 43.1763C324.156 43.2711 323.682 43.3185 323.161 43.3185C320.128 43.3185 318.138 41.7546 317.332 39.1955Z" fill="white"/>
<path d="M336.857 20.9023C334.914 14.8363 329.748 11.8032 323.208 11.8032C322.024 11.8032 320.839 11.898 319.749 12.0876C324.061 12.988 327.142 15.7367 328.611 20.1915C329.037 21.4236 329.369 22.8454 329.511 25.2623C329.653 26.5419 329.701 28.3428 329.701 31.0915C329.701 34.1719 329.654 36.0201 329.464 37.2997C329.274 39.4323 328.943 40.7119 328.563 41.8493C327.047 46.3988 323.919 49.1949 319.417 50.0006C320.602 50.2375 321.834 50.3797 323.161 50.3797C329.701 50.3797 334.914 47.3466 336.81 41.2806C337.615 38.6741 337.852 36.5888 337.852 31.0441C337.852 25.4993 337.71 23.5089 336.857 20.9023Z" fill="white"/>
<path d="M328.611 41.9441C328.99 40.8067 329.322 39.4797 329.512 37.3945C329.417 38.1528 329.275 38.7215 329.133 39.1954C328.422 41.3754 326.953 42.7971 324.63 43.2237C323.019 45.9723 320.318 47.4415 316.574 47.4415C315.247 47.4415 314.015 47.2519 312.925 46.8728C314.678 48.5315 316.906 49.6215 319.465 50.1428C323.967 49.2897 327.095 46.4936 328.611 41.9441Z" fill="white"/>
<path d="M223.403 49.195L216.01 34.4564C220.133 32.6555 222.692 28.8168 222.692 24.0303C222.692 17.2059 217.621 12.4194 209.991 12.4194H195.063C194.731 12.4194 194.494 12.6564 194.494 12.9881V49.2898C194.494 49.6216 194.731 49.8585 195.063 49.8585H202.077C202.408 49.8585 202.645 49.6216 202.645 49.2898V35.9255C202.645 35.9255 202.645 35.9255 202.645 35.8781V28.3903C202.645 28.3903 202.645 28.3903 202.645 28.3429V19.7177C202.645 19.4807 202.74 19.3859 202.977 19.3859H209.565C212.645 19.3859 214.635 21.1868 214.635 24.0303C214.635 26.8738 212.645 28.722 209.565 28.722H204.778L214.778 49.7637C214.872 49.8111 215.015 49.8585 215.252 49.8585H223.071C223.403 49.8585 223.592 49.5268 223.403 49.195Z" fill="white"/>
<path d="M373.916 49.195L366.523 34.4564C370.646 32.6555 373.206 28.8168 373.206 24.0303C373.206 17.2059 368.135 12.4194 360.505 12.4194H345.577C345.245 12.4194 345.008 12.6564 345.008 12.9881V49.2898C345.008 49.6216 345.245 49.8585 345.577 49.8585H352.59C352.922 49.8585 353.159 49.6216 353.159 49.2898V35.9255C353.159 35.9255 353.159 35.9255 353.159 35.8781V28.3903C353.159 28.3903 353.159 28.3903 353.159 28.3429V19.7177C353.159 19.4807 353.254 19.3859 353.491 19.3859H360.078C363.159 19.3859 365.149 21.1868 365.149 24.0303C365.149 26.8738 363.159 28.722 360.078 28.722H355.292L365.291 49.7637C365.386 49.8111 365.528 49.8585 365.765 49.8585H373.585C373.916 49.8585 374.106 49.5268 373.916 49.195Z" fill="white"/>
</svg>
