<svg width="479" height="60" viewBox="0 0 479 60" fill="none" xmlns="http://www.w3.org/2000/svg">
<path d="M380.693 12.9876C380.693 12.6559 380.93 12.4189 381.262 12.4189H388.276C388.608 12.4189 388.845 12.6559 388.845 12.9876V49.3367C388.845 49.6685 388.608 49.9054 388.276 49.9054H381.262C380.93 49.9054 380.693 49.6685 380.693 49.3367V12.9876Z" fill="#008A8B"/>
<path d="M396.333 31.1388C396.333 25.5941 396.57 23.4615 397.376 20.9023C399.319 14.8363 404.484 11.8032 411.166 11.8032C418.18 11.8032 422.73 15.2628 424.483 19.8123C424.626 20.1441 424.578 20.4758 424.246 20.618L418.37 23.0823C417.991 23.1771 417.706 23.0823 417.612 22.798C416.095 20.2863 414.2 18.9593 411.119 18.9593C407.944 18.9593 405.953 20.5706 405.1 23.1297C404.674 24.4567 404.484 26.2102 404.484 31.1388C404.484 36.0675 404.626 37.8684 405.1 39.1954C405.906 41.8019 407.944 43.3184 411.214 43.3184C414.01 43.3184 416.427 41.9441 417.233 39.4797C417.517 38.5319 417.659 37.3945 417.659 35.7832C417.659 35.5462 417.564 35.4515 417.327 35.4515H412.304C411.972 35.4515 411.735 35.2145 411.735 34.8828V29.6223C411.735 29.2906 411.972 29.0536 412.304 29.0536H425.194C425.526 29.0536 425.763 29.2906 425.763 29.6223V32.7028C425.763 36.0201 425.479 39.1006 424.815 41.1384C422.92 47.1571 417.754 50.5219 411.166 50.5219C404.484 50.5219 399.319 47.4888 397.376 41.4227C396.523 38.8162 396.333 36.731 396.333 31.1388Z" fill="#008A8B"/>
<path d="M433.298 12.9876C433.298 12.6559 433.535 12.4189 433.867 12.4189H440.88C441.212 12.4189 441.449 12.6559 441.449 12.9876V49.3367C441.449 49.6685 441.212 49.9054 440.88 49.9054H433.867C433.535 49.9054 433.298 49.6685 433.298 49.3367V12.9876Z" fill="#008A8B"/>
<path d="M449.885 12.9876C449.885 12.6559 450.122 12.4189 450.453 12.4189H457.041C457.42 12.4189 457.752 12.5611 457.989 12.9876L471.211 36.5411H471.495V12.9876C471.495 12.6559 471.732 12.4189 472.064 12.4189H478.272C478.604 12.4189 478.841 12.6559 478.841 12.9876V49.3367C478.841 49.6685 478.604 49.9054 478.272 49.9054H471.732C471.306 49.9054 471.021 49.7632 470.784 49.3367L457.515 25.8307H457.23V49.3367C457.23 49.6685 456.993 49.9054 456.662 49.9054H450.453C450.122 49.9054 449.885 49.6685 449.885 49.3367V12.9876Z" fill="#008A8B"/>
<path d="M92.0811 12.9403C92.0811 12.6085 92.3181 12.3716 92.6498 12.3716H116.677C117.009 12.3716 117.246 12.6085 117.246 12.9403V18.8168C117.246 19.1485 117.009 19.3855 116.677 19.3855H100.564C100.327 19.3855 100.232 19.4803 100.232 19.7172V27.1576C100.232 27.3946 100.327 27.4894 100.564 27.4894H114.023C114.355 27.4894 114.592 27.7263 114.592 28.0581V33.8872C114.592 34.2189 114.355 34.4559 114.023 34.4559H100.469C100.232 34.4559 100.138 34.5507 100.138 34.7876V42.5598C100.138 42.7968 100.232 42.8915 100.469 42.8915H116.582C116.914 42.8915 117.151 43.1285 117.151 43.4602V49.2894C117.151 49.6211 116.914 49.8581 116.582 49.8581H92.555C92.2233 49.8581 91.9863 49.6211 91.9863 49.2894V12.9403H92.0811Z" fill="#09505D"/>
<path d="M124.544 12.9403C124.544 12.6085 124.781 12.3716 125.113 12.3716H131.7C132.079 12.3716 132.411 12.5138 132.648 12.9403L145.87 36.4937H146.154V12.9403C146.154 12.6085 146.391 12.3716 146.723 12.3716H152.931C153.263 12.3716 153.5 12.6085 153.5 12.9403V49.2894C153.5 49.6211 153.263 49.8581 152.931 49.8581H146.391C145.965 49.8581 145.68 49.7159 145.443 49.2894L132.174 25.7833H131.89V49.2894C131.89 49.6211 131.653 49.8581 131.321 49.8581H125.113C124.781 49.8581 124.544 49.6211 124.544 49.2894V12.9403Z" fill="#09505D"/>
<path d="M161.983 12.9403C161.983 12.6085 162.22 12.3716 162.552 12.3716H186.579C186.911 12.3716 187.148 12.6085 187.148 12.9403V18.8168C187.148 19.1485 186.911 19.3855 186.579 19.3855H170.466C170.229 19.3855 170.135 19.4803 170.135 19.7172V27.1576C170.135 27.3946 170.229 27.4894 170.466 27.4894H183.878C184.21 27.4894 184.447 27.7263 184.447 28.0581V33.8872C184.447 34.2189 184.21 34.4559 183.878 34.4559H170.419C170.182 34.4559 170.087 34.5507 170.087 34.7876V42.5598C170.087 42.7968 170.182 42.8915 170.419 42.8915H186.532C186.864 42.8915 187.101 43.1285 187.101 43.4602V49.2894C187.101 49.6211 186.864 49.8581 186.532 49.8581H162.552C162.22 49.8581 161.983 49.6211 161.983 49.2894V12.9403Z" fill="#09505D"/>
<path d="M229.042 31.1388C229.042 25.5941 229.279 23.4615 230.085 20.9023C232.028 14.8363 237.193 11.8032 243.875 11.8032C250.889 11.8032 255.439 15.2628 257.192 19.8123C257.335 20.1441 257.287 20.4758 256.955 20.618L251.079 23.0823C250.7 23.1771 250.415 23.0823 250.321 22.798C248.804 20.2863 246.908 18.9593 243.828 18.9593C240.653 18.9593 238.662 20.5706 237.809 23.1297C237.383 24.4567 237.193 26.2102 237.193 31.1388C237.193 36.0675 237.335 37.8684 237.809 39.1954C238.615 41.8019 240.653 43.3184 243.923 43.3184C246.719 43.3184 249.136 41.9441 249.942 39.4797C250.226 38.5319 250.368 37.3945 250.368 35.7832C250.368 35.5462 250.273 35.4515 250.036 35.4515H245.013C244.681 35.4515 244.444 35.2145 244.444 34.8828V29.5749C244.444 29.2432 244.681 29.0062 245.013 29.0062H257.903C258.235 29.0062 258.472 29.2432 258.472 29.5749V32.6554C258.472 35.9728 258.188 39.0532 257.524 41.091C255.628 47.1097 250.463 50.4745 243.875 50.4745C237.193 50.4745 232.028 47.4414 230.085 41.3754C229.232 38.7688 229.042 36.6836 229.042 31.1388Z" fill="#09505D"/>
<path d="M273.731 49.8581C273.4 49.8581 273.163 49.6211 273.163 49.2894V34.9298L262.073 12.9403C261.978 12.6559 262.073 12.3716 262.452 12.3716H269.656C270.035 12.3716 270.319 12.5138 270.462 12.9403L277.238 26.589H277.381L284.158 12.9403C284.3 12.5611 284.584 12.3716 284.963 12.3716H291.882C292.261 12.3716 292.451 12.6559 292.261 12.9403L281.172 34.9298V49.2894C281.172 49.6211 280.935 49.8581 280.603 49.8581H273.731Z" fill="#09505D"/>
<path d="M21.0417 29.3853H0V30.6174H21.0417V29.3853Z" fill="#005D5C"/>
<path d="M34.2639 16.3525H0V17.5847H34.2639V16.3525Z" fill="#00898A"/>
<path d="M27.5343 42.1812H0V43.4133H27.5343V42.1812Z" fill="#00898A"/>
<path d="M70.3757 19.3381H18.6245V14.8359H68.9066L70.3757 19.3381Z" fill="#00898A"/>
<path d="M71.9872 31.8498H16.6816V27.395H71.7503L71.9872 31.8498Z" fill="#005D5C"/>
<path d="M67.864 45.6403H19.7145L17.7715 41.1855H70.7075L67.864 45.6403Z" fill="#00898A"/>
<path d="M51.8931 25.5939C56.5258 25.5939 60.2814 21.8383 60.2814 17.2056C60.2814 12.5729 56.5258 8.81738 51.8931 8.81738C47.2604 8.81738 43.5049 12.5729 43.5049 17.2056C43.5049 21.8383 47.2604 25.5939 51.8931 25.5939Z" fill="#00898A"/>
<path d="M30.8043 38.2472C35.437 38.2472 39.1925 34.4917 39.1925 29.859C39.1925 25.2263 35.437 21.4707 30.8043 21.4707C26.1716 21.4707 22.416 25.2263 22.416 29.859C22.416 34.4917 26.1716 38.2472 30.8043 38.2472Z" fill="#005D5C"/>
<path d="M51.8931 51.5646C56.5258 51.5646 60.2814 47.809 60.2814 43.1763C60.2814 38.5436 56.5258 34.7881 51.8931 34.7881C47.2604 34.7881 43.5049 38.5436 43.5049 43.1763C43.5049 47.809 47.2604 51.5646 51.8931 51.5646Z" fill="#00898A"/>
<path d="M43.7893 60C38.908 60 34.1215 58.8152 29.8563 56.5404C15.2124 48.8157 9.57282 30.6648 17.2502 16.0209C24.9276 1.37704 43.1258 -4.26252 57.7697 3.46225C72.4136 11.187 78.0532 29.3379 70.3284 43.9818C66.6319 51.0431 60.2814 56.3035 52.6988 58.6257C49.808 59.5261 46.7749 60 43.7893 60ZM43.8367 3.50964C29.1928 3.50964 17.345 15.3101 17.345 29.954C17.345 44.5978 29.1454 56.4457 43.7893 56.4457C53.6467 56.4457 62.651 51.0431 67.248 42.3231C74.0723 29.3853 69.0962 13.367 56.1584 6.54268C52.3671 4.55225 48.1493 3.50964 43.8367 3.50964Z" fill="#0A515D"/>
<path d="M329.464 37.3469C329.606 36.0674 329.701 34.2191 329.701 31.1387C329.701 28.3426 329.653 26.5417 329.511 25.3096C329.606 26.7787 329.701 28.6743 329.701 31.0913C329.701 33.7926 329.606 35.8304 329.464 37.3469Z" fill="#008A8B"/>
<path d="M317.332 39.1955C316.905 37.8685 316.716 36.0676 316.716 31.1389C316.716 26.2103 316.858 24.4094 317.332 23.0824C318.138 20.4759 320.128 18.9594 323.208 18.9594C323.73 18.9594 324.204 19.0068 324.678 19.1016C323.066 16.2581 320.697 14.1255 316.858 14.1255C315.578 14.1255 314.062 14.5046 313.067 15.2629C311.503 16.6846 310.271 18.5803 309.512 20.9024C308.707 23.509 308.47 25.5942 308.47 31.1389C308.47 36.6837 308.707 38.8163 309.512 41.3755C310.223 43.6028 311.361 45.4037 312.877 46.8254C313.967 47.2046 315.152 47.3941 316.526 47.3941C320.27 47.3941 322.971 45.925 324.583 43.1763C324.156 43.2711 323.682 43.3185 323.161 43.3185C320.128 43.3185 318.138 41.7546 317.332 39.1955Z" fill="#008A8B"/>
<path d="M336.857 20.9023C334.914 14.8363 329.748 11.8032 323.208 11.8032C322.024 11.8032 320.839 11.898 319.749 12.0876C324.061 12.988 327.142 15.7367 328.611 20.1915C329.037 21.4236 329.369 22.8454 329.511 25.2623C329.653 26.5419 329.701 28.3428 329.701 31.0915C329.701 34.1719 329.654 36.0201 329.464 37.2997C329.274 39.4323 328.943 40.7119 328.563 41.8493C327.047 46.3988 323.919 49.1949 319.417 50.0006C320.602 50.2375 321.834 50.3797 323.161 50.3797C329.701 50.3797 334.914 47.3466 336.81 41.2806C337.615 38.6741 337.852 36.5888 337.852 31.0441C337.852 25.4993 337.71 23.5089 336.857 20.9023Z" fill="#008A8B"/>
<path d="M328.611 41.9441C328.99 40.8067 329.322 39.4797 329.512 37.3945C329.417 38.1528 329.275 38.7215 329.133 39.1954C328.422 41.3754 326.953 42.7971 324.63 43.2237C323.019 45.9723 320.318 47.4415 316.574 47.4415C315.247 47.4415 314.015 47.2519 312.925 46.8728C314.678 48.5315 316.906 49.6215 319.465 50.1428C323.967 49.2897 327.095 46.4936 328.611 41.9441Z" fill="#008A8B"/>
<path d="M223.403 49.1945L216.01 34.4559C220.133 32.655 222.692 28.8163 222.692 24.0298C222.692 17.2055 217.621 12.4189 209.991 12.4189H195.063C194.731 12.4189 194.494 12.6559 194.494 12.9876V49.2893C194.494 49.6211 194.731 49.858 195.063 49.858H202.077C202.408 49.858 202.645 49.6211 202.645 49.2893V35.925C202.645 35.925 202.645 35.925 202.645 35.8776V28.3898C202.645 28.3898 202.645 28.3898 202.645 28.3424V19.7172C202.645 19.4802 202.74 19.3855 202.977 19.3855H209.565C212.645 19.3855 214.635 21.1863 214.635 24.0298C214.635 26.8733 212.645 28.7215 209.565 28.7215H204.778L214.778 49.7632C214.872 49.8106 215.015 49.858 215.252 49.858H223.071C223.403 49.858 223.592 49.5263 223.403 49.1945Z" fill="#09505D"/>
<path d="M373.775 48.863L366.382 34.1243C370.505 32.3235 373.064 28.4848 373.064 23.6983C373.064 16.8739 367.993 12.0874 360.363 12.0874H345.435C345.103 12.0874 344.866 12.3244 344.866 12.6561V49.0052C344.866 49.3369 345.103 49.5739 345.435 49.5739H352.449C352.781 49.5739 353.018 49.3369 353.018 49.0052V35.5935C353.018 35.5935 353.018 35.5935 353.018 35.5461V28.0583C353.018 28.0583 353.018 28.0582 353.018 28.0109V19.3857C353.018 19.1487 353.112 19.0539 353.349 19.0539H359.937C363.017 19.0539 365.007 20.8548 365.007 23.6983C365.007 26.5417 363.017 28.39 359.937 28.39H355.15L365.15 49.4317C365.244 49.4791 365.387 49.5265 365.624 49.5265H373.443C373.775 49.5265 373.917 49.1947 373.775 48.863Z" fill="#008A8B"/>
</svg>
