<?xml version="1.0" encoding="UTF-8"?>
<svg id="Layer_1" xmlns="http://www.w3.org/2000/svg" viewBox="0 0 240 111.08">
  <defs>
    <style>
      .cls-1 {
        fill: #00a58d;
      }

      .cls-2 {
        fill: #02525e;
      }
    </style>
  </defs>
  <g>
    <path class="cls-1" d="M48.16,5.21c.12-.39.35-.58.7-.58h3.77c.39,0,.64.19.75.58l13.53,38.32c.12.39-.02.58-.41.58h-4.06c-.39,0-.64-.19-.75-.58l-3.02-8.59h-15.97l-3.02,8.59c-.16.39-.41.58-.75.58h-4.06c-.39,0-.52-.19-.41-.58L48.16,5.21ZM56.98,30.17l-6.21-17.94h-.12l-6.27,17.94h12.6Z"/>
    <path class="cls-1" d="M2.7,5.21c0-.39.19-.58.58-.58h13.3c6.77,0,11.07,2.81,12.89,8.42.15.54.3,1.1.44,1.68.14.58.25,1.3.35,2.15.1.85.16,1.88.2,3.08.04,1.2.06,2.67.06,4.41s-.02,3.21-.06,4.41c-.04,1.2-.11,2.23-.2,3.08-.1.85-.21,1.57-.35,2.15-.14.58-.28,1.14-.44,1.68-1.82,5.61-6.12,8.42-12.89,8.42H3.28c-.39,0-.58-.19-.58-.58V5.21ZM7.92,38.94c0,.23.12.35.35.35h7.23c2.39,0,4.32-.42,5.79-1.25,1.47-.83,2.53-2.22,3.18-4.15.11-.35.23-.75.35-1.22.12-.46.2-1.05.26-1.77.06-.72.11-1.6.15-2.64.04-1.05.06-2.34.06-3.89s-.02-2.84-.06-3.89c-.04-1.05-.09-1.92-.15-2.64-.06-.72-.14-1.31-.26-1.77-.12-.46-.23-.87-.35-1.22-.66-1.94-1.72-3.32-3.18-4.15s-3.39-1.25-5.79-1.25h-7.23c-.23,0-.35.12-.35.35v29.15Z"/>
    <path class="cls-1" d="M78.74,44.11c-.39,0-.59-.19-.59-.58V9.8c0-.23-.12-.35-.35-.35h-10.8c-.39,0-.58-.19-.58-.58v-3.66c0-.39.19-.58.58-.58h27.52c.39,0,.58.19.58.58v3.66c0,.39-.19.58-.58.58h-10.8c-.23,0-.35.12-.35.35v33.73c0,.39-.2.58-.59.58h-4.05Z"/>
    <path class="cls-1" d="M106.22,5.21c.12-.39.35-.58.7-.58h3.77c.39,0,.64.19.75.58l13.53,38.32c.12.39-.02.58-.41.58h-4.06c-.39,0-.64-.19-.75-.58l-3.02-8.59h-15.97l-3.02,8.59c-.16.39-.41.58-.75.58h-4.06c-.39,0-.52-.19-.41-.58l13.7-38.32ZM115.04,30.17l-6.21-17.94h-.12l-6.27,17.94h12.6Z"/>
  </g>
  <path class="cls-2" d="M2.7,51.71c0-.5.25-.76.77-.76h5.28c.51,0,.77.25.77.76v21.12c0,.3.15.45.45.45h22.26c.3,0,.45-.15.45-.45v-21.12c0-.5.25-.76.77-.76h5.28c.51,0,.76.25.76.76v49.97c0,.5-.25.76-.76.76h-5.28c-.51,0-.77-.25-.77-.76v-21.65c0-.3-.15-.45-.45-.45H9.96c-.3,0-.45.15-.45.45v21.65c0,.5-.26.76-.77.76H3.46c-.51,0-.77-.25-.77-.76v-49.97Z"/>
  <path class="cls-2" d="M66.46,103.27c-5.72,0-10.19-1.6-13.43-4.81-3.24-3.2-4.86-7.86-4.86-13.97v-32.78c0-.5.25-.76.77-.76h5.28c.51,0,.76.25.76.76v32.71c0,4.19,1.04,7.33,3.13,9.43,2.09,2.1,4.87,3.14,8.34,3.14s6.17-1.05,8.26-3.14c2.09-2.09,3.13-5.24,3.13-9.43v-32.71c0-.5.25-.76.77-.76h5.28c.51,0,.76.25.76.76v32.78c0,6.11-1.62,10.76-4.86,13.97-3.24,3.21-7.69,4.81-13.35,4.81Z"/>
  <path class="cls-2" d="M92.49,52.02c0-.5.25-.76.76-.76h18.25c5.2,0,9.08,1.22,11.66,3.67,2.57,2.45,3.86,5.74,3.86,9.88,0,3.03-.64,5.45-1.93,7.27-1.29,1.82-2.94,3.13-4.96,3.94v.15c.86.25,1.75.69,2.69,1.32.93.63,1.78,1.44,2.54,2.42.76.98,1.39,2.16,1.89,3.52.5,1.36.76,2.9.76,4.62,0,4.85-1.46,8.51-4.36,10.98-2.91,2.47-7.07,3.71-12.48,3.71h-17.91c-.51,0-.76-.25-.76-.76v-49.97ZM111.37,73.53c2.87,0,5.08-.73,6.64-2.2,1.56-1.46,2.34-3.41,2.34-5.83s-.78-4.44-2.34-5.9c-1.56-1.46-3.77-2.2-6.64-2.2h-11.62c-.3,0-.45.15-.45.45v15.22c0,.3.15.45.45.45h11.62ZM99.3,96.16c0,.3.15.45.45.45h12c3.07,0,5.41-.77,7.02-2.31,1.61-1.54,2.41-3.6,2.41-6.17s-.81-4.63-2.41-6.17c-1.61-1.54-3.95-2.31-7.02-2.31h-12c-.3,0-.45.15-.45.45v16.05Z"/>
  <g>
    <path class="cls-1" d="M199.91,67.78c-1.31,3.59-4.74,6.16-8.79,6.16-5.17,0-9.36-4.19-9.36-9.36s4.19-9.36,9.36-9.36c4.04,0,7.48,2.57,8.79,6.16h37.48c.49-2.81.75-5.69.75-8.64,0-1.36-.07-2.7-.18-4.03h-19.35c-1.31,3.59-4.74,6.16-8.79,6.16-5.17,0-9.36-4.19-9.36-9.36s4.19-9.36,9.36-9.36c4.04,0,7.48,2.57,8.79,6.16h18.44c-.86-4.09-2.22-8.01-4.01-11.67h-29.49l-18.05,18.06h-47.94c-.11,1.33-.17,2.67-.17,4.03,0,2.95.27,5.83.75,8.64h30.31l18.77,18.77h42.79c2.47-3.81,4.46-7.96,5.84-12.38h-35.95Z"/>
    <path class="cls-1" d="M184.59,86.55h-34.16c9.22,10.18,22.54,16.57,37.35,16.57s28.13-6.39,37.35-16.57h-40.53Z"/>
    <path class="cls-1" d="M200.92,24.28h28.41c-9.08-13.23-24.3-21.91-41.56-21.91s-32.48,8.68-41.56,21.91h21.73c1.31-3.59,4.74-6.16,8.79-6.16,5.17,0,9.36,4.19,9.36,9.36s-4.19,9.36-9.36,9.36c-4.04,0-7.48-2.57-8.79-6.16h-25.46c-1.79,3.66-3.15,7.57-4.01,11.67h44.39l18.06-18.06Z"/>
    <path class="cls-1" d="M165.81,67.78h-26.14c1.38,4.42,3.37,8.58,5.84,12.38h32.68l-12.38-12.38Z"/>
  </g>
</svg>
