<svg width="320" height="159" viewBox="0 0 320 159" fill="none" xmlns="http://www.w3.org/2000/svg">
<path d="M88.16 29.21C88.28 28.82 88.51 28.63 88.86 28.63H92.63C93.02 28.63 93.27 28.82 93.38 29.21L106.91 67.53C107.03 67.92 106.89 68.11 106.5 68.11H102.44C102.05 68.11 101.8 67.92 101.69 67.53L98.67 58.94H82.7L79.68 67.53C79.52 67.92 79.27 68.11 78.93 68.11H74.87C74.48 68.11 74.35 67.92 74.46 67.53L88.16 29.21ZM96.98 54.17L90.77 36.23H90.65L84.38 54.17H96.98Z" fill="#00A58D"/>
<path d="M42.7 29.21C42.7 28.82 42.89 28.63 43.28 28.63H56.58C63.35 28.63 67.65 31.44 69.47 37.05C69.62 37.59 69.77 38.15 69.91 38.73C70.05 39.31 70.16 40.03 70.26 40.88C70.36 41.73 70.42 42.76 70.46 43.96C70.5 45.16 70.52 46.63 70.52 48.37C70.52 50.11 70.5 51.58 70.46 52.78C70.42 53.98 70.35 55.01 70.26 55.86C70.16 56.71 70.05 57.43 69.91 58.01C69.77 58.59 69.63 59.15 69.47 59.69C67.65 65.3 63.35 68.11 56.58 68.11H43.28C42.89 68.11 42.7 67.92 42.7 67.53V29.21ZM47.92 62.94C47.92 63.17 48.04 63.29 48.27 63.29H55.5C57.89 63.29 59.82 62.87 61.29 62.04C62.76 61.21 63.82 59.82 64.47 57.89C64.58 57.54 64.7 57.14 64.82 56.67C64.94 56.21 65.02 55.62 65.08 54.9C65.14 54.18 65.19 53.3 65.23 52.26C65.27 51.21 65.29 49.92 65.29 48.37C65.29 46.82 65.27 45.53 65.23 44.48C65.19 43.43 65.14 42.56 65.08 41.84C65.02 41.12 64.94 40.53 64.82 40.07C64.7 39.61 64.59 39.2 64.47 38.85C63.81 36.91 62.75 35.53 61.29 34.7C59.83 33.87 57.9 33.45 55.5 33.45H48.27C48.04 33.45 47.92 33.57 47.92 33.8V62.95V62.94Z" fill="#00A58D"/>
<path d="M118.74 68.11C118.35 68.11 118.15 67.92 118.15 67.53V33.8C118.15 33.57 118.03 33.45 117.8 33.45H107C106.61 33.45 106.42 33.26 106.42 32.87V29.21C106.42 28.82 106.61 28.63 107 28.63H134.52C134.91 28.63 135.1 28.82 135.1 29.21V32.87C135.1 33.26 134.91 33.45 134.52 33.45H123.72C123.49 33.45 123.37 33.57 123.37 33.8V67.53C123.37 67.92 123.17 68.11 122.78 68.11H118.73H118.74Z" fill="#00A58D"/>
<path d="M146.22 29.21C146.34 28.82 146.57 28.63 146.92 28.63H150.69C151.08 28.63 151.33 28.82 151.44 29.21L164.97 67.53C165.09 67.92 164.95 68.11 164.56 68.11H160.5C160.11 68.11 159.86 67.92 159.75 67.53L156.73 58.94H140.76L137.74 67.53C137.58 67.92 137.33 68.11 136.99 68.11H132.93C132.54 68.11 132.41 67.92 132.52 67.53L146.22 29.21ZM155.04 54.17L148.83 36.23H148.71L142.44 54.17H155.04Z" fill="#00A58D"/>
<path d="M42.7 75.71C42.7 75.21 42.95 74.95 43.47 74.95H48.75C49.26 74.95 49.52 75.2 49.52 75.71V96.83C49.52 97.13 49.67 97.28 49.97 97.28H72.23C72.53 97.28 72.68 97.13 72.68 96.83V75.71C72.68 75.21 72.93 74.95 73.45 74.95H78.73C79.24 74.95 79.49 75.2 79.49 75.71V125.68C79.49 126.18 79.24 126.44 78.73 126.44H73.45C72.94 126.44 72.68 126.19 72.68 125.68V104.03C72.68 103.73 72.53 103.58 72.23 103.58H49.96C49.66 103.58 49.51 103.73 49.51 104.03V125.68C49.51 126.18 49.25 126.44 48.74 126.44H43.46C42.95 126.44 42.69 126.19 42.69 125.68V75.71H42.7Z" fill="white"/>
<path d="M106.46 127.27C100.74 127.27 96.27 125.67 93.03 122.46C89.79 119.26 88.17 114.6 88.17 108.49V75.71C88.17 75.21 88.42 74.95 88.94 74.95H94.22C94.73 74.95 94.98 75.2 94.98 75.71V108.42C94.98 112.61 96.02 115.75 98.11 117.85C100.2 119.95 102.98 120.99 106.45 120.99C109.92 120.99 112.62 119.94 114.71 117.85C116.8 115.76 117.84 112.61 117.84 108.42V75.71C117.84 75.21 118.09 74.95 118.61 74.95H123.89C124.4 74.95 124.65 75.2 124.65 75.71V108.49C124.65 114.6 123.03 119.25 119.79 122.46C116.55 125.67 112.1 127.27 106.44 127.27H106.46Z" fill="white"/>
<path d="M132.49 76.02C132.49 75.52 132.74 75.26 133.25 75.26H151.5C156.7 75.26 160.58 76.48 163.16 78.93C165.73 81.38 167.02 84.67 167.02 88.81C167.02 91.84 166.38 94.26 165.09 96.08C163.8 97.9 162.15 99.21 160.13 100.02V100.17C160.99 100.42 161.88 100.86 162.82 101.49C163.75 102.12 164.6 102.93 165.36 103.91C166.12 104.89 166.75 106.07 167.25 107.43C167.75 108.79 168.01 110.33 168.01 112.05C168.01 116.9 166.55 120.56 163.65 123.03C160.74 125.5 156.58 126.74 151.17 126.74H133.26C132.75 126.74 132.5 126.49 132.5 125.98V76.01L132.49 76.02ZM151.37 97.53C154.24 97.53 156.45 96.8 158.01 95.33C159.57 93.87 160.35 91.92 160.35 89.5C160.35 87.08 159.57 85.06 158.01 83.6C156.45 82.14 154.24 81.4 151.37 81.4H139.75C139.45 81.4 139.3 81.55 139.3 81.85V97.07C139.3 97.37 139.45 97.52 139.75 97.52H151.37V97.53ZM139.3 120.16C139.3 120.46 139.45 120.61 139.75 120.61H151.75C154.82 120.61 157.16 119.84 158.77 118.3C160.38 116.76 161.18 114.7 161.18 112.13C161.18 109.56 160.37 107.5 158.77 105.96C157.16 104.42 154.82 103.65 151.75 103.65H139.75C139.45 103.65 139.3 103.8 139.3 104.1V120.15V120.16Z" fill="white"/>
<path d="M239.91 91.78C238.6 95.37 235.17 97.94 231.12 97.94C225.95 97.94 221.76 93.75 221.76 88.58C221.76 83.41 225.95 79.22 231.12 79.22C235.16 79.22 238.6 81.79 239.91 85.38H277.39C277.88 82.57 278.14 79.69 278.14 76.74C278.14 75.38 278.07 74.04 277.96 72.71H258.61C257.3 76.3 253.87 78.87 249.82 78.87C244.65 78.87 240.46 74.68 240.46 69.51C240.46 64.34 244.65 60.15 249.82 60.15C253.86 60.15 257.3 62.72 258.61 66.31H277.05C276.19 62.22 274.83 58.3 273.04 54.64H243.55L225.5 72.7H177.56C177.45 74.03 177.39 75.37 177.39 76.73C177.39 79.68 177.66 82.56 178.14 85.37H208.45L227.22 104.14H270.01C272.48 100.33 274.47 96.18 275.85 91.76H239.9L239.91 91.78Z" fill="#00A58D"/>
<path d="M224.59 110.55H190.43C199.65 120.73 212.97 127.12 227.78 127.12C242.59 127.12 255.91 120.73 265.13 110.55H224.6H224.59Z" fill="#00A58D"/>
<path d="M240.92 48.28H269.33C260.25 35.05 245.03 26.37 227.77 26.37C210.51 26.37 195.29 35.05 186.21 48.28H207.94C209.25 44.69 212.68 42.12 216.73 42.12C221.9 42.12 226.09 46.31 226.09 51.48C226.09 56.65 221.9 60.84 216.73 60.84C212.69 60.84 209.25 58.27 207.94 54.68H182.48C180.69 58.34 179.33 62.25 178.47 66.35H222.86L240.92 48.29V48.28Z" fill="#00A58D"/>
<path d="M205.81 91.78H179.67C181.05 96.2 183.04 100.36 185.51 104.16H218.19L205.81 91.78Z" fill="#00A58D"/>
</svg>
