<svg width="981" height="622" viewBox="0 0 981 622" fill="none" xmlns="http://www.w3.org/2000/svg">
<g opacity="0.3" clip-path="url(#clip0_57_102)">
<path d="M906.091 519.221L852.19 776.36" stroke="#13ECB8" stroke-width="0.625169" stroke-miterlimit="10"/>
<path d="M804.42 393.974L852.19 776.616" stroke="#13ECB8" stroke-width="0.625169" stroke-miterlimit="10"/>
<path d="M644.507 543.248L852.19 776.361" stroke="#13ECB8" stroke-width="0.625169" stroke-miterlimit="10"/>
<path d="M679.249 639.611L644.507 543.248" stroke="#13ECB8" stroke-width="0.625169" stroke-miterlimit="10"/>
<path d="M804.676 393.719L644.507 543.248" stroke="#13ECB8" stroke-width="0.625169" stroke-miterlimit="10"/>
<path d="M906.091 516.154L803.143 392.696" stroke="#13ECB8" stroke-width="0.625169" stroke-miterlimit="10"/>
<path d="M803.143 392.696L980.683 467.589" stroke="#13ECB8" stroke-width="0.625169" stroke-miterlimit="10"/>
<path d="M644.507 543.248L487.914 763.58" stroke="#13ECB8" stroke-width="0.625169" stroke-miterlimit="10"/>
<path d="M332.344 1090.5L446.276 1049.86L301.689 404.71" stroke="#13ECB8" stroke-width="0.625169" stroke-miterlimit="10"/>
<path d="M46.2368 519.221L486.637 763.58" stroke="#13ECB8" stroke-width="0.625169" stroke-miterlimit="10"/>
<path d="M300.923 404.198L486.637 763.58" stroke="#13ECB8" stroke-width="0.625169" stroke-miterlimit="10"/>
<path d="M278.443 980.845L46.2368 519.221" stroke="#13ECB8" stroke-width="0.625169" stroke-miterlimit="10"/>
<path d="M300.923 404.198L526.743 181.821" stroke="#13ECB8" stroke-width="0.625169" stroke-miterlimit="10"/>
<path d="M46.2368 519.221L300.923 404.198" stroke="#13ECB8" stroke-width="0.625169" stroke-miterlimit="10"/>
<path d="M526.233 182.077L486.893 763.58" stroke="#13ECB8" stroke-width="0.625169" stroke-miterlimit="10"/>
<path d="M644.507 543.248L301.689 404.965" stroke="#13ECB8" stroke-width="0.625169" stroke-miterlimit="10"/>
<path d="M803.143 393.719L301.179 403.943" stroke="#13ECB8" stroke-width="0.625169" stroke-miterlimit="10"/>
<path d="M526.232 182.077L644.507 543.248" stroke="#13ECB8" stroke-width="0.625169" stroke-miterlimit="10"/>
<path d="M526.232 182.077L803.654 392.952" stroke="#13ECB8" stroke-width="0.625169" stroke-miterlimit="10"/>
<path d="M906.091 519.221L937.511 -65.8608" stroke="#13ECB8" stroke-width="0.625169" stroke-miterlimit="10"/>
<path d="M301.178 403.942L278.443 980.334" stroke="#13ECB8" stroke-width="0.625169" stroke-miterlimit="10"/>
<path d="M809.019 867.612L980.938 604.849" stroke="#13ECB8" stroke-width="0.625169" stroke-miterlimit="10"/>
<path d="M803.654 393.719L980.938 509.764" stroke="#13ECB8" stroke-width="0.625169" stroke-miterlimit="10"/>
<path d="M980.938 815.723L906.091 516.153" stroke="#13ECB8" stroke-width="0.625169" stroke-miterlimit="10"/>
<path d="M645.529 397.042L804.932 393.719" stroke="#13ECB8" stroke-width="0.625169" stroke-miterlimit="10"/>
<path d="M645.529 397.041L809.019 867.611" stroke="#13ECB8" stroke-width="0.625169" stroke-miterlimit="10"/>
<path d="M980.938 862.755L645.273 397.041" stroke="#13ECB8" stroke-width="0.625169" stroke-miterlimit="10"/>
<path d="M980.938 394.23L804.676 393.719" stroke="#13ECB8" stroke-width="0.625169" stroke-miterlimit="10"/>
<path d="M937.767 -66.1162L769.679 101.561L526.233 182.077" stroke="#13ECB8" stroke-width="0.625169" stroke-miterlimit="10"/>
<path d="M804.42 393.974L980.938 110.763" stroke="#13ECB8" stroke-width="0.625169" stroke-miterlimit="10"/>
<path d="M912.477 393.719L699.685 313.203L980.938 223.485" stroke="#13ECB8" stroke-width="0.625169" stroke-miterlimit="10"/>
<path d="M770.446 101.305L913.499 393.974" stroke="#13ECB8" stroke-width="0.625169" stroke-miterlimit="10"/>
<path d="M937.256 -65.605L646.04 397.297L770.445 101.306" stroke="#13ECB8" stroke-width="0.625169" stroke-miterlimit="10"/>
<path d="M980.938 238.822L937.255 -65.605" stroke="#13ECB8" stroke-width="0.625169" stroke-miterlimit="10"/>
<path d="M301.689 404.71L980.938 529.957" stroke="#13ECB8" stroke-width="0.625169" stroke-miterlimit="10"/>
<path d="M980.938 164.44L769.423 101.816" stroke="#13ECB8" stroke-width="0.625169" stroke-miterlimit="10"/>
</g>
<defs>
<clipPath id="clip0_57_102">
<rect width="980.939" height="1185.5" fill="white" transform="translate(0 -95)"/>
</clipPath>
</defs>
</svg>
