<?xml version="1.0" encoding="UTF-8"?>
<svg xmlns="http://www.w3.org/2000/svg" viewBox="0 0 628.13 240" height="40px">
  <defs>
    <style>
      .cls-1 {
        fill: #fff;
      }

      .cls-2 {
        fill: #00898a;
      }
    </style>
  </defs>
  <path class="cls-1" d="M628.8,155.01v17.07c-2.46,1.1-5.51,2.02-9.14,2.75-3.63,.72-7.6,1.08-11.91,1.08-5.02,0-9.52-.81-13.5-2.44s-7.12-4.46-9.4-8.5c-2.28-4.03-3.41-9.65-3.41-16.87v-40.52h-10.98v-9.7l12.63-7.67,6.61-17.74h14.66v17.89h23.53v17.22h-23.53v40.52c0,3.21,.92,5.6,2.75,7.18,1.82,1.57,4.24,2.37,7.25,2.37,2.51,0,4.95-.25,7.33-.76,2.38-.5,4.75-1.12,7.11-1.88Z"/>
  <path class="cls-1" d="M561.96,155.01v17.07c-2.45,1.1-5.5,2.02-9.13,2.75-3.63,.72-7.6,1.08-11.91,1.08-5.02,0-9.52-.81-13.5-2.44s-7.12-4.46-9.4-8.5c-2.28-4.03-3.42-9.65-3.42-16.87v-40.52h-10.97v-9.7l12.63-7.67,6.61-17.74h14.66v17.89h23.53v17.22h-23.53v40.52c0,3.21,.92,5.6,2.75,7.18,1.82,1.57,4.24,2.37,7.25,2.37,2.51,0,4.95-.25,7.33-.76,2.38-.5,4.75-1.12,7.1-1.88Z"/>
  <path class="cls-1" d="M488.52,118.4v56.01h-16.01l-4.44-11.43h-.6c-2.41,3.01-4.86,5.47-7.37,7.37-2.5,1.91-5.38,3.31-8.64,4.21s-7.22,1.35-11.88,1.35c-4.96,0-9.41-.95-13.35-2.85-3.93-1.91-7.02-4.82-9.28-8.76-2.25-3.93-3.38-8.93-3.38-15,0-8.92,3.13-15.5,9.4-19.73,6.26-4.23,15.66-6.58,28.19-7.03l14.58-.45v-3.69c0-4.41-1.15-7.64-3.46-9.69-2.3-2.06-5.51-3.08-9.62-3.08s-8.04,.57-11.95,1.72c-3.91,1.16-7.82,2.61-11.73,4.36l-7.59-15.48c4.46-2.36,9.46-4.21,15-5.56,5.53-1.36,11.26-2.03,17.17-2.03,11.28,0,19.92,2.45,25.94,7.36,6.01,4.91,9.02,12.38,9.02,22.4Zm-22.78,23.99v-6.92l-8.87,.3c-7.42,.2-12.57,1.53-15.45,3.98-2.88,2.46-4.32,5.69-4.32,9.7,0,3.51,1.03,6.01,3.08,7.48,2.06,1.48,4.74,2.22,8.05,2.22,4.91,0,9.06-1.45,12.43-4.36,3.39-2.91,5.08-7.04,5.08-12.4Z"/>
  <path class="cls-1" d="M407.1,64.5l-27.96,109.91h-26.54l-14.88-57.73c-.3-1.11-.7-2.79-1.2-5.04-.51-2.26-1.03-4.72-1.58-7.41-.55-2.68-1.05-5.21-1.47-7.59-.43-2.38-.71-4.27-.86-5.67-.15,1.4-.44,3.28-.87,5.63-.43,2.36-.9,4.87-1.43,7.52-.52,2.66-1.04,5.14-1.54,7.44-.5,2.31-.9,4.06-1.2,5.27l-14.81,57.58h-26.46l-28.04-109.91h22.93l9.65,15.81-5.19,17.41,14.36,19.55s.48,35.21,.57,36.02c.11-.83,15-37.39,15-37.39l-10.84-20.01,16.97-31.39h24.73l8.09,15.96-6.47,15.73,17,18.03s-.33,38.59-.28,39.07c.16-1.15,14.95-39.84,14.95-39.84l-11.15-17.56,12.53-31.39h25.99Z"/>
  <path class="cls-2" d="M191.93,14.69V226c0,8.33-7.09,14.75-15.78,14.32l-161.22-7.84c-7.54-.36-13.61-6.9-13.61-14.59V22.8c0-7.7,6.07-14.23,13.61-14.6L144.87,1.88v2.16c0,3.42-1.32,6.65-3.44,9.35-3.41,4.33-4.91,10.2-3.16,16.46,1.69,5.99,6.64,10.86,12.66,12.43,12.25,3.2,23.26-5.96,23.26-17.69,0-4.2-1.44-8.05-3.83-11.13-2.13-2.74-3.5-5.98-3.5-9.45V.81l9.29-.45c8.69-.42,15.78,5.99,15.78,14.33Zm-30.16,52.13c.28-1.56-.32-2.86-1.29-3.96-.73-.83-1.81-1.26-2.92-1.26h-24.77c-2.15,0-3.97,1.53-4.34,3.67l-7.94,47.4c-.24,1.41-.48,2.85-.72,4.32-.23-.52-9.1-49.74-9.46-51.75-.37-2.11-2.19-3.64-4.33-3.64h-19.91c-2.1,0-3.91,1.49-4.32,3.53-.76,2.21-9.98,51.66-10.43,52.14l-8.45-51.97c-.34-2.15-2.17-3.7-4.34-3.7h-24.05c-1.14-.08-2.09,.41-2.86,1.13-1.22,1.13-1.69,2.86-1.38,4.49l20.76,108.02c.39,2.08,2.2,3.59,4.32,3.59,45.07-.33,28.08,7.43,40.7-45.99,12.47,53.61-9.06,45.6,36.33,45.98,.16,0,1.2,0,2.33-.01,1.88-.01,3.5-1.32,3.9-3.16,3.83-17.95,22.76-106.63,23.17-108.83Z"/>
  <path class="cls-1" d="M170.36,13.46c2.39,3.08,3.83,6.93,3.83,11.13,0,11.73-11.01,20.89-23.26,17.69-6.02-1.57-10.97-6.44-12.66-12.43-1.75-6.26-.25-12.13,3.16-16.46,2.12-2.7,3.44-5.93,3.44-9.35V1.73s21.34-1.04,21.34-1.04l.65,.12v3.2c0,3.47,1.37,6.71,3.5,9.45Zm-1.95,11.01c0-7.29-5.91-13.2-13.2-13.2s-13.19,5.91-13.19,13.2,5.9,13.2,13.19,13.2,13.2-5.91,13.2-13.2Z"/>
  <path class="cls-2" d="M155.21,11.27c7.29,0,13.2,5.91,13.2,13.2s-5.91,13.2-13.2,13.2-13.19-5.91-13.19-13.2,5.9-13.2,13.19-13.2Z"/>
  <path class="cls-1" d="M160.48,62.86c.97,1.1,1.57,2.4,1.29,3.96-.41,2.2-19.34,90.88-23.17,108.83-.4,1.84-2.02,3.15-3.9,3.16-1.13,.01-2.17,.01-2.33,.01-45.39-.38-23.86,7.63-36.33-45.98-12.62,53.42,4.37,45.66-40.7,45.99-2.12,0-3.93-1.51-4.32-3.59L30.26,67.22c-.31-1.63,.16-3.36,1.38-4.49,.77-.72,1.72-1.21,2.86-1.13h24.05c2.17,0,4,1.55,4.34,3.7l8.45,51.97c.45-.48,9.67-49.93,10.43-52.14,.41-2.04,2.22-3.53,4.32-3.53h19.91c2.14,0,3.96,1.53,4.33,3.64,.36,2.01,9.23,51.23,9.46,51.75,.24-1.47,.48-2.91,.72-4.32l7.94-47.4c.37-2.14,2.19-3.67,4.34-3.67h24.77c1.11,0,2.19,.43,2.92,1.26Z"/>
</svg>
