<svg width="578" height="578" viewBox="0 0 578 578" fill="none" xmlns="http://www.w3.org/2000/svg">
<circle cx="288.828" cy="288.828" r="281.328" transform="rotate(-180 288.828 288.828)" stroke="#ECE3D5" stroke-width="15"/>
<path d="M288.832 7.49853C359.624 7.49853 427.813 34.1875 479.797 82.241C531.781 130.295 563.738 196.18 569.292 266.754C574.847 337.327 553.59 407.401 509.763 462.995C465.937 518.589 402.761 555.616 332.841 566.691C262.921 577.765 191.396 562.072 132.534 522.742C73.6731 483.412 31.803 423.337 15.277 354.501C-1.24901 285.665 8.78393 213.129 43.3743 151.364C77.9647 89.598 134.57 43.1436 201.897 21.2677" stroke="#01847D" stroke-width="15"/>
<path d="M288.832 7.49853C334.723 7.49853 379.917 18.7248 420.473 40.1985C461.03 61.6722 495.718 92.7413 521.513 130.697C547.307 168.652 563.425 212.341 568.461 257.955C573.497 303.569 567.297 349.722 550.404 392.39C533.51 435.058 506.435 472.946 471.54 502.75C436.644 532.554 394.987 553.368 350.202 563.379C305.416 573.39 258.861 572.293 214.597 560.183C170.333 548.074 129.703 525.32 96.2496 493.906" stroke="#13ECB8" stroke-width="15"/>
</svg>
