<svg width="358" height="490" viewBox="0 0 358 490" fill="none" xmlns="http://www.w3.org/2000/svg">
<g opacity="0.5" clip-path="url(#clip0_355_266)">
<path d="M407 413.077L353.581 361.535" stroke="#13ECB8" stroke-width="0.259388" stroke-miterlimit="10"/>
<path d="M404.138 470.876L353.687 361.747" stroke="#13ECB8" stroke-width="0.259388" stroke-miterlimit="10"/>
<path d="M406.894 321.128L353.581 361.535" stroke="#13ECB8" stroke-width="0.259388" stroke-miterlimit="10"/>
<path d="M407 342.551L353.581 361.535" stroke="#13ECB8" stroke-width="0.259388" stroke-miterlimit="10"/>
<path d="M375.945 254.845L353.581 361.535" stroke="#13ECB8" stroke-width="0.259388" stroke-miterlimit="10"/>
<path d="M333.761 202.879L353.581 361.641" stroke="#13ECB8" stroke-width="0.259388" stroke-miterlimit="10"/>
<path d="M261.688 412.653L353.581 361.535" stroke="#13ECB8" stroke-width="0.259388" stroke-miterlimit="10"/>
<path d="M201.804 356.338L353.581 361.535" stroke="#13ECB8" stroke-width="0.259388" stroke-miterlimit="10"/>
<path d="M281.826 304.796L353.581 361.535" stroke="#13ECB8" stroke-width="0.259388" stroke-miterlimit="10"/>
<path d="M267.412 264.814L353.581 361.535" stroke="#13ECB8" stroke-width="0.259388" stroke-miterlimit="10"/>
<path d="M281.826 304.796L267.412 264.814" stroke="#13ECB8" stroke-width="0.259388" stroke-miterlimit="10"/>
<path d="M333.867 202.773L267.412 264.815" stroke="#13ECB8" stroke-width="0.259388" stroke-miterlimit="10"/>
<path d="M375.945 253.573L333.231 202.349" stroke="#13ECB8" stroke-width="0.259388" stroke-miterlimit="10"/>
<path d="M333.231 202.349L406.894 233.423" stroke="#13ECB8" stroke-width="0.259388" stroke-miterlimit="10"/>
<path d="M281.826 304.796L202.44 356.232" stroke="#13ECB8" stroke-width="0.259388" stroke-miterlimit="10"/>
<path d="M267.412 264.814L202.44 356.232" stroke="#13ECB8" stroke-width="0.259388" stroke-miterlimit="10"/>
<path d="M261.794 412.44L201.91 356.444" stroke="#13ECB8" stroke-width="0.259388" stroke-miterlimit="10"/>
<path d="M281.826 304.796L261.688 414.031" stroke="#13ECB8" stroke-width="0.259388" stroke-miterlimit="10"/>
<path d="M404.032 470.558L261.9 412.44" stroke="#13ECB8" stroke-width="0.259388" stroke-miterlimit="10"/>
<path d="M236.357 491.874L261.688 414.031" stroke="#13ECB8" stroke-width="0.259388" stroke-miterlimit="10"/>
<path d="M213.357 491.874L261.688 412.652" stroke="#13ECB8" stroke-width="0.259388" stroke-miterlimit="10"/>
<path d="M201.91 356.232L185.164 475.012" stroke="#13ECB8" stroke-width="0.259388" stroke-miterlimit="10"/>
<path d="M261.688 412.652L185.164 475.012" stroke="#13ECB8" stroke-width="0.259388" stroke-miterlimit="10"/>
<path d="M185.164 491.874V475.012" stroke="#13ECB8" stroke-width="0.259388" stroke-miterlimit="10"/>
<path d="M137.892 491.874L185.164 475.012L125.174 207.333" stroke="#13ECB8" stroke-width="0.259388" stroke-miterlimit="10"/>
<path d="M115.529 446.165L201.91 356.232" stroke="#13ECB8" stroke-width="0.259388" stroke-miterlimit="10"/>
<path d="M261.794 412.44L115.529 446.165" stroke="#13ECB8" stroke-width="0.259388" stroke-miterlimit="10"/>
<path d="M124.644 491.874L201.91 356.338" stroke="#13ECB8" stroke-width="0.259388" stroke-miterlimit="10"/>
<path d="M115.529 446.06L120.51 491.874" stroke="#13ECB8" stroke-width="0.259388" stroke-miterlimit="10"/>
<path d="M115.528 446.165L98.2522 491.874" stroke="#13ECB8" stroke-width="0.259388" stroke-miterlimit="10"/>
<path d="M115.528 446.165L37.4142 491.874" stroke="#13ECB8" stroke-width="0.259388" stroke-miterlimit="10"/>
<path d="M19.1841 254.845L201.91 356.232" stroke="#13ECB8" stroke-width="0.259388" stroke-miterlimit="10"/>
<path d="M124.855 207.122L201.91 356.232" stroke="#13ECB8" stroke-width="0.259388" stroke-miterlimit="10"/>
<path d="M407 359.732L353.581 361.535" stroke="#13ECB8" stroke-width="0.259388" stroke-miterlimit="10"/>
<path d="M115.529 446.377L19.1841 254.845" stroke="#13ECB8" stroke-width="0.259388" stroke-miterlimit="10"/>
<path d="M124.855 207.121L218.55 114.855" stroke="#13ECB8" stroke-width="0.259388" stroke-miterlimit="10"/>
<path d="M19.1841 254.845L124.856 207.122" stroke="#13ECB8" stroke-width="0.259388" stroke-miterlimit="10"/>
<path d="M218.339 114.961L202.016 356.232" stroke="#13ECB8" stroke-width="0.259388" stroke-miterlimit="10"/>
<path d="M267.412 264.814L125.174 207.439" stroke="#13ECB8" stroke-width="0.259388" stroke-miterlimit="10"/>
<path d="M333.231 202.773L124.962 207.016" stroke="#13ECB8" stroke-width="0.259388" stroke-miterlimit="10"/>
<path d="M218.338 114.961L267.411 264.814" stroke="#13ECB8" stroke-width="0.259388" stroke-miterlimit="10"/>
<path d="M218.338 114.961L333.443 202.455" stroke="#13ECB8" stroke-width="0.259388" stroke-miterlimit="10"/>
<path d="M404.244 470.558L324.328 491.874" stroke="#13ECB8" stroke-width="0.259388" stroke-miterlimit="10"/>
<path d="M265.292 491.874L261.794 412.44" stroke="#13ECB8" stroke-width="0.259388" stroke-miterlimit="10"/>
<path d="M353.687 361.535L320.194 491.874" stroke="#13ECB8" stroke-width="0.259388" stroke-miterlimit="10"/>
<path d="M124.962 207.015L115.529 446.165" stroke="#13ECB8" stroke-width="0.259388" stroke-miterlimit="10"/>
<path d="M353.263 361.535L290.729 491.874" stroke="#13ECB8" stroke-width="0.259388" stroke-miterlimit="10"/>
<path d="M329.946 456.559L305.462 491.874" stroke="#13ECB8" stroke-width="0.259388" stroke-miterlimit="10"/>
<path d="M335.669 399.396L329.946 456.559" stroke="#13ECB8" stroke-width="0.259388" stroke-miterlimit="10"/>
<path d="M350.296 491.874L329.946 456.559" stroke="#13ECB8" stroke-width="0.259388" stroke-miterlimit="10"/>
<path d="M407 412.016L329.946 456.558" stroke="#13ECB8" stroke-width="0.259388" stroke-miterlimit="10"/>
<path d="M403.926 470.664L329.946 456.559" stroke="#13ECB8" stroke-width="0.259388" stroke-miterlimit="10"/>
<path d="M380.185 491.98L329.946 456.559" stroke="#13ECB8" stroke-width="0.259388" stroke-miterlimit="10"/>
<path d="M335.669 399.396L407 452.423" stroke="#13ECB8" stroke-width="0.259388" stroke-miterlimit="10"/>
<path d="M335.669 399.396L407 406.926" stroke="#13ECB8" stroke-width="0.259388" stroke-miterlimit="10"/>
<path d="M270.803 491.874L329.946 456.559" stroke="#13ECB8" stroke-width="0.259388" stroke-miterlimit="10"/>
<path d="M335.669 399.396L251.513 491.874" stroke="#13ECB8" stroke-width="0.259388" stroke-miterlimit="10"/>
<path d="M335.669 399.396L407 290.373" stroke="#13ECB8" stroke-width="0.259388" stroke-miterlimit="10"/>
<path d="M333.443 202.773L407 250.922" stroke="#13ECB8" stroke-width="0.259388" stroke-miterlimit="10"/>
<path d="M267.836 204.152L333.973 202.773" stroke="#13ECB8" stroke-width="0.259388" stroke-miterlimit="10"/>
<path d="M267.836 204.152L335.669 399.396" stroke="#13ECB8" stroke-width="0.259388" stroke-miterlimit="10"/>
<path d="M407 397.381L267.73 204.152" stroke="#13ECB8" stroke-width="0.259388" stroke-miterlimit="10"/>
<path d="M407 202.986L333.867 202.773" stroke="#13ECB8" stroke-width="0.259388" stroke-miterlimit="10"/>
<path d="M389.088 11.9839L319.347 81.5547L218.339 114.961" stroke="#13ECB8" stroke-width="0.259388" stroke-miterlimit="10"/>
<path d="M333.761 202.879L407 85.3726" stroke="#13ECB8" stroke-width="0.259388" stroke-miterlimit="10"/>
<path d="M378.595 202.773L290.305 169.367L407 132.142" stroke="#13ECB8" stroke-width="0.259388" stroke-miterlimit="10"/>
<path d="M319.665 81.4487L379.019 202.88" stroke="#13ECB8" stroke-width="0.259388" stroke-miterlimit="10"/>
<path d="M388.876 12.1958L268.047 204.258L319.664 81.4485" stroke="#13ECB8" stroke-width="0.259388" stroke-miterlimit="10"/>
<path d="M125.174 207.334L407 259.3" stroke="#13ECB8" stroke-width="0.259388" stroke-miterlimit="10"/>
<path d="M329.946 456.559L407 299.494" stroke="#13ECB8" stroke-width="0.259388" stroke-miterlimit="10"/>
<path d="M407 107.644L319.24 81.6606" stroke="#13ECB8" stroke-width="0.259388" stroke-miterlimit="10"/>
</g>
<defs>
<clipPath id="clip0_355_266">
<rect width="407" height="491.874" fill="white"/>
</clipPath>
</defs>
</svg>
