<?xml version="1.0" standalone="no"?>
<!DOCTYPE svg PUBLIC "-//W3C//DTD SVG 20010904//EN"
 "http://www.w3.org/TR/2001/REC-SVG-20010904/DTD/svg10.dtd">
<svg version="1.0" xmlns="http://www.w3.org/2000/svg"
 width="700.000000pt" height="700.000000pt" viewBox="0 0 700.000000 700.000000"
 preserveAspectRatio="xMidYMid meet">
<metadata>
Created by potrace 1.14, written by Peter Selinger 2001-2017
</metadata>
<g transform="translate(0.000000,700.000000) scale(0.100000,-0.100000)"
fill="#000000" stroke="none">
<path d="M1750 5787 l0 -124 -299 5 c-306 5 -450 -3 -606 -34 -315 -63 -433
-199 -333 -386 117 -221 540 -504 1181 -791 l57 -26 0 -1782 0 -1781 673 5
c704 6 787 10 1007 56 583 121 1011 443 1284 963 202 386 315 925 316 1506 l0
144 28 -6 c15 -3 96 -13 181 -21 780 -76 1314 -5 1413 188 103 204 -199 500
-846 831 -281 143 -658 304 -990 422 l-139 49 -35 55 c-109 171 -272 352 -417
465 -279 217 -614 340 -1018 374 -75 7 -406 11 -793 11 l-664 0 0 -123z m-42
-343 l42 -7 0 -383 c0 -211 -3 -384 -6 -384 -20 0 -469 230 -579 297 -258 156
-486 350 -461 392 19 30 207 76 371 91 103 9 557 5 633 -6z m1392 -234 c175
-13 406 -71 526 -134 250 -129 413 -319 545 -631 l38 -90 33 5 c18 3 85 5 148
4 98 0 127 -4 193 -27 181 -63 315 -188 394 -367 32 -72 33 -73 27 -30 -37
277 -78 467 -144 659 -22 63 -37 117 -35 119 14 14 575 -223 826 -348 273
-137 436 -234 588 -350 85 -64 211 -193 211 -214 0 -18 -82 -49 -181 -70 -231
-47 -651 -48 -1059 -1 -189 22 -180 24 -180 -32 -1 -120 -56 -274 -139 -383
-114 -152 -307 -250 -491 -250 l-76 0 -17 -132 c-36 -274 -100 -497 -198 -688
-196 -384 -509 -601 -959 -665 -75 -10 -196 -15 -422 -15 l-318 0 0 1300 c0
715 2 1300 5 1300 3 0 64 -20 137 -45 387 -133 1130 -344 1164 -331 8 3 14 18
14 33 0 15 11 59 24 96 15 46 19 70 12 73 -6 2 -74 19 -151 38 -301 75 -766
214 -1061 318 l-144 50 0 409 0 409 283 0 c155 0 338 -5 407 -10z"/>
</g>
</svg>
