<?xml version="1.0" encoding="UTF-8" standalone="no"?>
<!-- Created with Inkscape (http://www.inkscape.org/) -->

<svg
   xmlns:dc="http://purl.org/dc/elements/1.1/"
   xmlns:cc="http://creativecommons.org/ns#"
   xmlns:rdf="http://www.w3.org/1999/02/22-rdf-syntax-ns#"
   xmlns:svg="http://www.w3.org/2000/svg"
   xmlns="http://www.w3.org/2000/svg"
   xmlns:sodipodi="http://sodipodi.sourceforge.net/DTD/sodipodi-0.dtd"
   xmlns:inkscape="http://www.inkscape.org/namespaces/inkscape"
   width="261.80832mm"
   height="32.503399mm"
   viewBox="0 0 261.80832 32.503399"
   version="1.1"
   id="svg8"
   inkscape:version="0.92.0 r15299"
   sodipodi:docname="energinet.svg">
  <defs
     id="defs2">
    <clipPath
       id="clipPath26"
       clipPathUnits="userSpaceOnUse">
      <path
         inkscape:connector-curvature="0"
         id="path24"
         d="M 0,0 H 595.276 V 841.89 H 0 Z" />
    </clipPath>
    <clipPath
       id="clipPath139"
       clipPathUnits="userSpaceOnUse">
      <path
         inkscape:connector-curvature="0"
         id="path137"
         d="M 0,104.995 H 759.318 V 0 H 0 Z" />
    </clipPath>
  </defs>
  <sodipodi:namedview
     id="base"
     pagecolor="#ffffff"
     bordercolor="#666666"
     borderopacity="1.0"
     inkscape:pageopacity="0.0"
     inkscape:pageshadow="2"
     inkscape:zoom="0.8136084"
     inkscape:cx="492.86613"
     inkscape:cy="59.533994"
     inkscape:document-units="mm"
     inkscape:current-layer="layer1"
     showgrid="false"
     fit-margin-top="0"
     fit-margin-left="0"
     fit-margin-right="0"
     fit-margin-bottom="0"
     units="mm"
     inkscape:window-width="1280"
     inkscape:window-height="744"
     inkscape:window-x="-4"
     inkscape:window-y="-4"
     inkscape:window-maximized="1" />
  <metadata
     id="metadata5">
    <rdf:RDF>
      <cc:Work
         rdf:about="">
        <dc:format>image/svg+xml</dc:format>
        <dc:type
           rdf:resource="http://purl.org/dc/dcmitype/StillImage" />
        <dc:title></dc:title>
      </cc:Work>
    </rdf:RDF>
  </metadata>
  <g
     inkscape:label="Layer 1"
     inkscape:groupmode="layer"
     id="layer1"
     transform="translate(153.83869,-132.08164)">
    <g
       id="g317"
       transform="translate(0.49999672,-0.50000276)">
      <path
         d="m -124.90915,134.53966 c 0.006,-0.61242 0.39511,-0.98672 1.16522,-0.98672 h 7.42739 c 0.4953,0 1.0421,0.3743 1.25941,0.79798 l 9.22973,17.39689 c 0.75988,1.50318 1.90041,3.57152 2.38548,5.40526 h 0.1076 l 1.53176,-22.56861 c 0.006,-0.70414 0.34043,-1.03152 1.22061,-1.03152 h 4.290133 c 1.042458,0 1.097844,0.3743 1.094669,0.98672 l -1.964619,28.68189 c -0.0035,0.56268 -0.334786,0.89076 -1.216731,0.89076 h -7.482772 c -0.54645,0 -1.09572,-0.42403 -1.3088,-0.84596 l -9.11896,-17.77188 c -1.30633,-2.35091 -2.00977,-3.90243 -2.38266,-5.45289 h -0.11147 l -1.48167,23.17997 c -0.003,0.56268 -0.39264,0.89076 -1.05304,0.89076 h -4.56742 c -0.93345,0 -0.98636,-0.42403 -0.98283,-0.89076 z"
         style="fill:#24b492;fill-opacity:1;fill-rule:nonzero;stroke:none;stroke-width:0.35277778"
         id="path143"
         inkscape:connector-curvature="0" />
      <path
         d="m -5.7548236,161.85772 c -0.015875,2.06798 -5.7421634,2.72732 -10.0312354,2.72732 -11.808178,0 -17.416992,-4.70288 -17.35067,-14.15344 0.08537,-12.14437 8.896703,-17.34996 20.1549,-17.34996 3.7958888,0 8.962672,0.61171 8.9534998,1.97485 l -0.24765,3.76272 c -0.00282,0.42193 -0.1728611,0.94016 -0.6113639,0.94016 -1.4827249,0 -3.398661,-1.5046 -8.0186389,-1.5046 -8.015111,0 -11.927416,4.82988 -11.975747,11.80077 -0.04269,6.16056 2.932642,9.12142 9.518297,9.12142 0.549275,0 1.047397,-0.0931 1.541992,-0.18873 l 0.614186,-8.93269 c 0.0032,-0.61348 0.334433,-0.89394 1.21285,-0.89394 h 6.0519026 c 0.9906,0 0.9870722,0.42333 0.9838972,0.89394 z"
         style="fill:#24b492;fill-opacity:1;fill-rule:nonzero;stroke:none;stroke-width:0.35277778"
         id="path147"
         inkscape:connector-curvature="0" />
      <path
         d="m 2.9249206,134.44477 c 0.00353,-0.61136 0.3376083,-0.89182 1.0502194,-0.89182 h 5.8335332 c 0.8258528,0 0.8230308,0.3743 0.8184448,0.89182 l -1.9649725,28.77679 c -0.00459,0.56268 -0.2776361,0.89076 -0.9390945,0.89076 H 1.8926928 c -0.93627216,0 -0.93203882,-0.42368 -0.93027493,-0.89076 z"
         style="fill:#24b492;fill-opacity:1;fill-rule:nonzero;stroke:none;stroke-width:0.35277778"
         id="path151"
         inkscape:connector-curvature="0" />
      <path
         d="m 18.159981,134.53966 c 0.0049,-0.61242 0.392994,-0.98672 1.164872,-0.98672 h 7.422797 c 0.497417,0 1.040342,0.3743 1.263297,0.79798 l 9.22902,17.39689 c 0.760941,1.50318 1.900061,3.57152 2.383719,5.40526 h 0.109361 l 1.531408,-22.56861 c 0.0071,-0.70414 0.340784,-1.03152 1.216731,-1.03152 h 4.292953 c 1.0414,0 1.092552,0.3743 1.087261,0.98672 l -1.957211,28.68189 c -0.0049,0.56268 -0.336197,0.89076 -1.216378,0.89076 h -7.4803 c -0.546805,0 -1.09608,-0.42403 -1.313744,-0.84596 l -9.117895,-17.77188 c -1.303866,-2.35091 -2.008011,-3.90243 -2.384072,-5.45289 h -0.106539 l -1.484136,23.17997 c -0.0025,0.56268 -0.390877,0.89076 -1.050219,0.89076 h -4.569883 c -0.93345,0 -0.979664,-0.42403 -0.978253,-0.89076 z"
         style="fill:#045177;fill-opacity:1;fill-rule:nonzero;stroke:none;stroke-width:0.35277778"
         id="path155"
         inkscape:connector-curvature="0" />
      <path
         d="m 88.922404,138.48774 h -7.8613 c -0.933803,0 -0.98813,-0.37571 -0.985661,-0.7052 l 0.245181,-3.33763 c 0.0049,-0.61172 0.389819,-0.89218 1.053041,-0.89218 h 24.556505 c 0.99096,0 1.04317,0.37465 1.03929,0.89218 l -0.24201,3.10268 c -0.002,0.61136 -0.39299,0.94015 -1.16099,0.94015 h -8.940095 l -1.716617,24.73396 c -0.0049,0.56268 -0.332669,0.89041 -0.994127,0.89041 h -5.720292 c -0.880886,0 -0.989189,-0.37465 -0.985308,-0.89041 z"
         style="fill:#045177;fill-opacity:1;fill-rule:nonzero;stroke:none;stroke-width:0.35277778"
         id="path159"
         inkscape:connector-curvature="0" />
      <path
         d="M -131.46118,133.55284 H -150.768 c -0.77259,0 -1.10102,0.28046 -1.10561,0.89182 l -1.96497,28.77714 c -0.003,0.46673 0.0494,0.89041 0.98637,0.89041 h 19.30894 c 0.7687,0 1.16063,-0.32808 1.16346,-0.89041 l 0.1845,-3.15101 c 0.004,-0.61066 -0.10336,-0.89358 -1.03752,-0.89358 h -11.85369 c -0.58631,-0.0522 -0.72707,-0.32668 -0.75459,-0.65793 l 1.30316,-19.1382 h 0.002 c 0.003,-0.61172 0.33691,-0.89323 1.1049,-0.89323 h 11.60745 c 0.82303,0 1.10067,-0.32879 1.16311,-0.94015 l 0.23742,-3.00814 c 0.005,-0.56374 -0.0473,-0.98672 -1.03858,-0.98672"
         style="fill:#24b492;fill-opacity:1;fill-rule:nonzero;stroke:none;stroke-width:0.35277778"
         id="path163"
         inkscape:connector-curvature="0" />
      <path
         d="m -135.26819,145.33643 h -3.75461 c -0.94404,0 -1.34797,0.34396 -1.3522,1.09396 l -0.2988,3.85869 c -0.005,0.63217 0.13158,1.08937 1.25306,1.0922 h 3.76061 c 0.93804,0 1.34515,-0.34361 1.35114,-1.0922 l 0.29669,-3.85869 c 0.005,-0.63041 -0.12982,-1.08902 -1.25589,-1.09396"
         style="fill:#24b492;fill-opacity:1;fill-rule:nonzero;stroke:none;stroke-width:0.35277778"
         id="path167"
         inkscape:connector-curvature="0" />
      <path
         d="m -67.339698,133.55284 h -19.309291 c -0.769056,0 -1.100667,0.28046 -1.104547,0.89182 l -1.961798,28.77714 c -0.0042,0.46673 0.04904,0.89041 0.98425,0.89041 h 19.307175 c 0.772936,0 1.15958,-0.32808 1.164167,-0.89041 l 0.187677,-3.15101 c 0.0046,-0.61066 -0.103011,-0.89358 -1.041047,-0.89358 h -11.850511 c -0.597605,-0.055 -0.732366,-0.33162 -0.756355,-0.6731 l 1.30563,-19.12303 h 0.0014 c 0.0042,-0.61172 0.335492,-0.89323 1.1049,-0.89323 h 11.604625 c 0.826911,0 1.1049,-0.32879 1.16452,-0.94015 l 0.238125,-3.00814 c 0.0042,-0.56374 -0.04516,-0.98672 -1.038931,-0.98672"
         style="fill:#24b492;fill-opacity:1;fill-rule:nonzero;stroke:none;stroke-width:0.35277778"
         id="path171"
         inkscape:connector-curvature="0" />
      <path
         d="m -71.144653,145.33643 h -3.757436 c -0.942975,0 -1.349375,0.34396 -1.355019,1.09396 l -0.297039,3.85869 c -0.0046,0.63217 0.13088,1.08937 1.256947,1.0922 h 3.753555 c 0.945092,0 1.347964,-0.34361 1.353961,-1.0922 l 0.298803,-3.85869 c 0.0046,-0.63041 -0.132644,-1.08902 -1.253772,-1.09396"
         style="fill:#24b492;fill-opacity:1;fill-rule:nonzero;stroke:none;stroke-width:0.35277778"
         id="path175"
         inkscape:connector-curvature="0" />
      <path
         d="M 75.724247,133.55284 H 56.417072 c -0.769408,0 -1.101019,0.28046 -1.106663,0.89182 l -1.96462,28.77714 c 0,0.46673 0.05045,0.89041 0.987072,0.89041 H 73.6418 c 0.767644,0 1.158522,-0.32808 1.161344,-0.89041 l 0.185914,-3.15101 c 0.0035,-0.61066 -0.104069,-0.89358 -1.037872,-0.89358 H 62.097147 c -0.587727,-0.0522 -0.726722,-0.32668 -0.753533,-0.65793 l 1.303867,-19.1382 c 0.0046,-0.61172 0.339019,-0.89323 1.105605,-0.89323 h 11.606036 c 0.8255,0 1.1049,-0.32879 1.165225,-0.94015 l 0.239183,-3.00814 c 0.0049,-0.56374 -0.04833,-0.98672 -1.039283,-0.98672"
         style="fill:#045177;fill-opacity:1;fill-rule:nonzero;stroke:none;stroke-width:0.35277778"
         id="path179"
         inkscape:connector-curvature="0" />
      <path
         d="M 71.916752,145.33643 H 68.15861 c -0.944738,0 -1.35008,0.34396 -1.355019,1.09396 l -0.294922,3.85869 c -0.0063,0.63217 0.131939,1.08937 1.257653,1.0922 h 3.754613 c 0.941564,0 1.349023,-0.34361 1.35502,-1.0922 l 0.295275,-3.85869 c 0.0056,-0.63041 -0.130528,-1.08902 -1.254478,-1.09396"
         style="fill:#045177;fill-opacity:1;fill-rule:nonzero;stroke:none;stroke-width:0.35277778"
         id="path183"
         inkscape:connector-curvature="0" />
      <path
         d="m -49.401618,147.41108 c -0.694619,0.0822 -1.060803,0.26987 -1.095022,0.82656 l -0.176742,3.3468 c -0.02469,0.35701 0.03775,0.80786 0.242358,1.20086 l 5.957359,10.85532 c 0.223308,0.37818 0.42298,0.47484 0.988483,0.47167 h 7.192786 c 0.728133,0.013 1.147233,-0.2727 0.559153,-1.12748 l -8.234892,-12.9152 c 2.569633,-0.34678 7.383992,-2.03341 7.383992,-8.32061 0,-3.67489 -2.245431,-8.19609 -11.583458,-8.19609 h -11.495264 c -0.71755,0 -1.104194,0.28046 -1.107722,0.89006 l -1.960739,28.77679 c -0.0028,0.46884 0.04692,0.89253 0.980369,0.89253 h 5.776736 c 0.66287,0 0.940859,-0.32809 0.945092,-0.89253 l 0.621242,-8.87448 c 7.05e-4,-0.006 -0.0014,-0.009 -0.0018,-0.0155 l 0.480836,-6.83648 h -0.0056 l 0.563387,-9.23855 h 3.131255 c 4.138083,0.0106 5.506155,2.44334 5.45218,4.73781 -0.04833,2.20027 -1.224844,4.01108 -4.61398,4.41854"
         style="fill:#24b492;fill-opacity:1;fill-rule:nonzero;stroke:none;stroke-width:0.35277778"
         id="path187"
         inkscape:connector-curvature="0" />
    </g>
  </g>
</svg>
