<svg width="70" height="67" viewBox="0 0 70 67" fill="none" xmlns="http://www.w3.org/2000/svg">
<path d="M57.9675 0L61.4875 3.515L56.25 8.75L52.735 5.235L57.97 0H57.9675ZM12.03 0L17.2675 5.235L13.75 8.75L8.515 3.5175L12.0325 0H12.03ZM35 1.56C35.825 1.57 36.66 1.6175 37.5 1.72C37.525 1.72 37.55 1.715 37.575 1.72C47.715 2.8825 55.785 11.075 57.1875 21.17C58.3075 29.295 54.9575 36.6625 49.375 41.4075C47.0915 43.3564 45.5469 46.0307 45 48.9825V63.9825H39.3C38.43 65.475 36.8425 66.4825 35 66.4825C33.1575 66.4825 31.57 65.475 30.7 63.9825H25V53.9825H24.765V51.0125C24.765 47.3475 22.86 43.6525 19.765 40.78C15.625 36.635 12.5 30.7475 12.5 23.985C12.5 11.635 22.665 1.445 35 1.56ZM35 6.56C25.3375 6.425 17.5 14.335 17.5 23.985C17.5 29.22 19.925 33.83 23.2825 37.185L23.2025 37.265C26.5391 40.3418 28.6966 44.487 29.3025 48.985H40.2375C40.7875 44.7 42.625 40.5525 46.0975 37.5775C50.515 33.8275 53.1475 28.1775 52.2675 21.7975C51.175 13.9225 44.785 7.59 36.955 6.7225C36.3085 6.63237 35.6575 6.57895 35.005 6.5625L35 6.56ZM70 23.985V28.985H62.5V23.985H70ZM7.5 23.985V28.985H0V23.985H7.5ZM56.25 44.22L61.485 49.4525L57.9675 52.97L52.7375 47.735L56.25 44.22ZM13.75 44.22L17.265 47.735L12.0325 52.97L8.515 49.4525L13.75 44.22ZM40 53.985H30V58.985H40V53.985Z" fill="#005D5C"/>
</svg>
