<svg width="64" height="64" viewBox="0 0 64 64" fill="none" xmlns="http://www.w3.org/2000/svg">
<path d="M32.2108 61.9501C32.1173 61.8233 32.0421 61.7223 31.9691 61.6202L14.5981 37.5601C13.9299 36.6339 13.2616 35.7078 12.5933 34.7817C12.5095 34.6628 12.4334 34.5386 12.3655 34.4099C11.4734 32.7828 10.7794 31.0547 10.2984 29.2624C9.97678 28.0424 9.75614 26.798 9.6387 25.5418C9.54584 24.5674 9.51784 23.5879 9.5549 22.6097C9.72036 18.4583 10.8958 14.6151 13.1756 11.1405C16.3752 6.26486 20.8103 3.05992 26.4413 1.52353C28.8718 0.891105 31.3896 0.66136 33.8944 0.84343C39.3535 1.28931 44.0754 3.39836 48.0142 7.20497C50.9828 10.0747 52.9984 13.5214 54.091 17.5031C54.4531 18.837 54.6908 20.2016 54.8012 21.5794C54.897 22.7608 54.9063 23.9476 54.8291 25.1303C54.6679 27.9064 53.9392 30.62 52.6879 33.1034C52.6455 33.178 52.6079 33.2552 52.575 33.3344C52.3849 33.8577 52.0615 34.3014 51.7402 34.7473C45.3103 43.7006 38.8814 52.6572 32.4536 61.617C32.3795 61.7201 32.3043 61.8222 32.2108 61.9501ZM32.2108 60.3385C32.3032 60.2117 32.3741 60.1171 32.4429 60.0161C38.5956 51.4424 44.7491 42.8694 50.9033 34.2971C51.2256 33.8426 51.5619 33.3968 51.7553 32.8649C51.7714 32.825 51.7908 32.7866 51.8133 32.75C52.979 30.4648 53.6774 27.9701 53.8675 25.4118C53.9565 24.2731 53.9644 23.1296 53.8912 21.9898C53.8199 20.8441 53.6549 19.7061 53.398 18.5872C52.4182 14.397 50.3897 10.7881 47.2858 7.81093C43.4362 4.12251 38.8259 2.1166 33.5066 1.76312C31.5925 1.63612 29.6702 1.77424 27.794 2.17354C23.593 3.06315 19.9444 5.00244 16.9092 8.03655C13.1201 11.8249 11.0003 16.3972 10.5498 21.7534C10.243 25.5644 10.9573 29.3883 12.6191 32.8316C12.8555 33.3162 13.0725 33.8233 13.3851 34.2573C19.5916 42.8762 25.8063 51.4897 32.0292 60.0978C32.0754 60.1666 32.1302 60.2289 32.2119 60.3352L32.2108 60.3385Z" fill="currentColor"/>
<path d="M46.7902 24.1353C46.787 26.0637 46.4014 27.9722 45.6558 29.7506C44.9102 31.529 43.8194 33.1419 42.4465 34.4961C41.0736 35.8502 39.4458 36.9187 37.6573 37.6397C35.8688 38.3607 33.9551 38.72 32.0269 38.6967C24.1193 38.5968 17.6396 32.1622 17.6299 24.1299C17.6629 20.2853 19.2133 16.6093 21.9437 13.9023C24.674 11.1953 28.3631 9.67651 32.2079 9.67651C36.0527 9.67651 39.7418 11.1953 42.4722 13.9023C45.2025 16.6093 46.7529 20.2853 46.7859 24.1299L46.7902 24.1353ZM32.1945 37.7619C35.8102 37.7637 39.2787 36.3302 41.8383 33.7765C44.3979 31.2227 45.8393 27.7574 45.8458 24.1417C45.8609 16.6306 39.7551 10.5194 32.2504 10.4968C24.8885 10.4721 18.5678 16.3953 18.5721 24.1417C18.5775 31.7625 24.7478 37.7437 32.1945 37.7619Z" fill="currentColor"/>
</svg>
