<svg width="96" height="116" viewBox="0 0 96 116" fill="none" xmlns="http://www.w3.org/2000/svg">
<path d="M48.8994 89.8799V115.794C48.2943 115.836 47.687 115.836 47.0818 115.794V89.8841C46.5753 89.8424 46.1188 89.8007 45.6602 89.7673C40.449 89.3734 35.6714 87.6996 31.2774 84.8918C26.4435 81.8005 22.6352 77.7087 19.6628 72.8227C16.957 68.3516 15.0913 63.4235 14.1577 58.2815C13.6189 55.3947 13.3551 52.4634 13.3698 49.5268C13.3698 45.9936 13.3698 42.4604 13.3698 38.9273V38.2707C13.13 38.2707 12.9237 38.2436 12.7152 38.2436H0V36.4447C1.64464 36.4447 3.27052 36.4447 4.89849 36.4447H24.5362C24.5467 36.1758 24.5633 35.9652 24.5633 35.7547C24.5633 29.3887 24.5633 23.0221 24.5633 16.6548C24.5633 12.7554 24.5633 8.85538 24.5633 4.95466C24.5627 3.65775 25.0725 2.41269 25.9825 1.48865C26.8925 0.564619 28.1296 0.0358566 29.4264 0.0166858C30.7231 -0.00248494 31.9754 0.489476 32.9123 1.38621C33.8492 2.28294 34.3956 3.51239 34.4333 4.80874C34.4333 5.01719 34.4333 5.20896 34.4333 5.40907V36.3363C34.8356 36.4613 60.8914 36.4884 61.4938 36.3675C61.4938 36.1382 61.523 35.8923 61.523 35.6484C61.523 25.504 61.523 15.3541 61.523 5.19854C61.5036 4.48063 61.6232 3.76574 61.8752 3.09323C62.276 2.10524 62.9855 1.27327 63.8978 0.721412C64.81 0.169552 65.8762 -0.0726337 66.9374 0.0309735C67.9985 0.134581 68.9978 0.578429 69.7861 1.29633C70.5744 2.01422 71.1095 2.9677 71.3116 4.01456C71.3829 4.44226 71.4156 4.87547 71.4096 5.30902C71.4096 15.4256 71.4096 25.5422 71.4096 35.6588V36.4238C72.6144 36.4572 73.7734 36.4238 74.9323 36.4384C76.0913 36.453 77.2669 36.4384 78.4321 36.4384H95.9416C96.0004 37.033 96.0039 37.6317 95.9521 38.2269H82.6323C82.6136 38.4791 82.5823 38.6855 82.5823 38.8939C82.5823 42.229 82.5719 45.5642 82.5823 48.8993C82.6135 51.1325 82.493 53.3653 82.2217 55.5821C80.971 64.9226 77.3649 73.1667 70.7342 79.9704C66.5215 84.2894 61.4917 87.3389 55.6114 88.8856C53.5659 89.4202 51.47 89.7388 49.358 89.8361C49.2205 89.8403 49.0912 89.8611 48.8994 89.8799ZM15.2166 47.3443C15.199 47.4492 15.1872 47.555 15.1812 47.6612C15.1374 50.865 15.2604 54.0542 15.8065 57.2205C16.5309 61.5305 17.9219 65.7014 19.9296 69.5835C22.4684 74.4569 25.8411 78.6425 30.2456 81.9568C35.2587 85.7297 40.8763 87.833 47.1777 88.0393C50.466 88.1441 53.7467 87.6627 56.8663 86.6177C61.9753 84.9272 66.3089 82.0319 69.9838 78.1235C74.5363 73.2917 77.5337 67.597 79.2701 61.2185C79.9352 58.7402 80.3816 56.2083 80.6041 53.6519C80.7855 51.6404 80.7772 49.6268 80.773 47.607C80.7679 47.5266 80.7582 47.4465 80.7438 47.3673C80.3686 47.263 15.8774 47.2338 15.2166 47.3443ZM15.252 38.2727C15.1311 38.8585 15.1541 45.0598 15.275 45.4391C15.3375 45.4527 15.4008 45.4617 15.4646 45.4662H80.4603C80.5304 45.4636 80.6001 45.4552 80.6688 45.4412C80.6836 45.4349 80.6971 45.4257 80.7084 45.4141L80.748 45.3745V38.2727H15.252ZM32.6219 36.3967V35.7109C32.6219 25.5804 32.6219 15.4492 32.6219 5.31735C32.6239 5.0842 32.6135 4.8511 32.5906 4.61906C32.544 4.06205 32.3421 3.52928 32.0079 3.08123C31.6737 2.63319 31.2206 2.28782 30.7 2.08435C30.1871 1.85068 29.6181 1.76852 29.0601 1.84755C28.502 1.92659 27.9782 2.16352 27.5504 2.53043C26.7166 3.18286 26.3685 4.07293 26.3685 5.11516C26.3685 7.6318 26.3685 10.1478 26.3685 12.663C26.3685 20.3436 26.3685 28.0248 26.3685 35.7068C26.3685 35.934 26.3893 36.1612 26.4018 36.4176L32.6219 36.3967ZM69.5815 36.4238V5.27983C69.5815 5.0964 69.5815 4.91088 69.5815 4.72954C69.4961 3.93948 69.113 3.2116 68.5102 2.69382C67.9074 2.17604 67.13 1.90722 66.3361 1.942C65.5422 1.97677 64.7913 2.31252 64.2361 2.88102C63.6809 3.44952 63.3629 4.2081 63.3469 5.0026C63.3469 8.15223 63.3469 11.3019 63.3469 14.4515V36.4363C65.4522 36.4405 67.4949 36.4447 69.5878 36.4342L69.5815 36.4238Z" fill="currentColor"/>
</svg>
