<?xml version="1.0" encoding="UTF-8"?>
<svg xmlns="http://www.w3.org/2000/svg" viewBox="0 0 628.13 240" height="40px">
  <defs>
    <style>
      .cls-1 {
        fill: #fff;
      }

      .cls-2 {
        fill: #333;
      }

      .cls-3 {
        fill: #00898a;
      }
    </style>
  </defs>
  <g>
    <g>
      <circle class="cls-3" cx="154.55" cy="24.25" r="13.2"/>
      <path class="cls-3" d="M174.83,.02l-9.29,.45V3.67c0,3.47,1.37,6.71,3.5,9.45,2.39,3.08,3.83,6.93,3.83,11.13,0,11.73-11.01,20.88-23.26,17.68-6.03-1.57-10.98-6.44-12.66-12.43-1.75-6.25-.25-12.13,3.15-16.46,2.12-2.7,3.44-5.92,3.44-9.35V1.54L13.62,7.86C6.08,8.23,0,14.76,0,22.46V217.54c0,7.7,6.08,14.23,13.62,14.6l161.22,7.84c8.69,.42,15.78-5.99,15.78-14.33V14.35c0-8.34-7.09-14.75-15.78-14.33Z"/>
    </g>
  </g>
  <g>
    <g>
      <path class="cls-1" d="M157.5,65.92l-20.55,108.44c-.07,.35-.37,.6-.72,.6h-28.78c-.35,0-.66-.25-.72-.6l-7.41-40.52c-.45-2.36-.88-4.76-1.28-7.22s-.77-4.95-1.09-7.48c-.33-2.53-.64-5.08-.94-7.63s-.55-5.11-.75-7.67c-.15,2.05-.35,4.34-.6,6.84s-.55,5.1-.9,7.78c-.35,2.68-.71,5.33-1.09,7.93-.37,2.61-.79,5.04-1.24,7.29l-7.56,40.67c-.06,.35-.37,.6-.72,.6h-28.48c-.35,0-.65-.25-.72-.59l-20.84-108.44c-.09-.45,.26-.87,.72-.87h24.05c.36,0,.67,.26,.72,.62l7.72,47.27c.3,1.85,.64,4.03,1.02,6.54,.37,2.51,.74,5.18,1.09,8,.35,2.84,.69,5.69,1.02,8.57,.32,2.89,.64,5.63,.94,8.23,.3-2.76,.65-5.6,1.05-8.53,.4-2.93,.83-5.78,1.28-8.57,.45-2.78,.88-5.37,1.28-7.78s.78-4.46,1.13-6.16l9.58-47.6c.07-.34,.37-.59,.72-.59h19.91c.35,0,.66,.25,.72,.6l8.61,47.58c.45,2,.89,4.27,1.31,6.81s.85,5.2,1.28,8c.42,2.81,.81,5.6,1.16,8.38,.35,2.78,.65,5.4,.9,7.85,.2-2.81,.51-5.96,.94-9.47,.42-3.51,.91-7.14,1.46-10.9s1.13-7.37,1.73-10.83l7.94-47.42c.06-.35,.36-.61,.72-.61h24.66c.46,0,.81,.42,.72,.87Z"/>
      <path class="cls-1" d="M136.23,178.62h-28.77c-2.12,0-3.94-1.52-4.33-3.6l-7.41-40.52c-.12-.62-.24-1.24-.35-1.87-.11,.6-.23,1.2-.34,1.78l-7.55,40.62c-.39,2.08-2.21,3.59-4.32,3.59h-28.48c-2.12,0-3.94-1.51-4.32-3.59L29.19,64.92l1.25-1.94c.84-1.02,2.08-1.6,3.4-1.6h24.05c2.17,0,4,1.55,4.34,3.7l8.45,51.97c.3-1.72,.58-3.24,.86-4.55l9.58-47.58c.4-2.04,2.22-3.53,4.31-3.53h19.91c2.14,0,3.97,1.53,4.33,3.64l8.61,47.56c.28,1.23,.57,2.64,.85,4.19,.24-1.46,.48-2.9,.72-4.31l7.94-47.4c.37-2.14,2.19-3.67,4.34-3.67h26.38l1.66,1.59c.84,1.01,1.18,2.33,.93,3.63l-20.55,108.44c-.39,2.07-2.21,3.58-4.32,3.58Zm-2.88-4.95h0s0,0,0,0Zm-75.8-.04v.04s0-.03,0-.04Zm52.35-2.34h23.9l19.44-102.57h-18.64l-7.53,44.98c-.6,3.45-1.17,7.03-1.72,10.75s-1.03,7.33-1.45,10.8c-.42,3.45-.73,6.54-.93,9.3l-7.3,.11c-.25-2.43-.54-5.02-.89-7.77-.35-2.76-.73-5.52-1.15-8.3-.42-2.78-.85-5.43-1.27-7.94-.41-2.46-.84-4.66-1.27-6.61l-8.21-45.33h-15.06l-9.11,45.24c-.35,1.68-.71,3.69-1.11,6.04l-1.27,7.76c-.45,2.76-.87,5.58-1.26,8.48-.4,2.9-.74,5.71-1.04,8.43l-2.9,26.61h9.59l7.11-38.27c.45-2.24,.85-4.61,1.21-7.14,.38-2.6,.74-5.22,1.09-7.89,.34-2.64,.64-5.2,.89-7.67s.44-4.72,.59-6.74l7.31-.02c.2,2.51,.44,5.02,.74,7.52,.3,2.54,.61,5.07,.93,7.59,.32,2.5,.68,4.95,1.07,7.36,.39,2.42,.81,4.79,1.26,7.12l6.97,38.15Zm-52.8,0h12.71l-4.01-34.83c-.33-2.86-.66-5.7-1.01-8.53-.35-2.8-.71-5.44-1.08-7.92l-8.32-51.3h-18.01l19.71,102.57Zm31.2-104.94v.02s0-.01,0-.02Zm14.14-.05v.04s0-.04,0-.04Zm-47.45-.05s0,0,0,0h0Zm-18.27-1.05v.03s0-.01,0-.03Z"/>
    </g>
    <g>
      <path class="cls-2" d="M406.44,64.29l-27.97,109.91h-26.54l-14.88-57.73c-.3-1.1-.7-2.78-1.2-5.04s-1.03-4.72-1.58-7.41c-.55-2.68-1.04-5.21-1.47-7.59s-.71-4.27-.86-5.68c-.15,1.4-.44,3.28-.86,5.64-.43,2.36-.9,4.86-1.43,7.52-.52,2.66-1.04,5.14-1.54,7.44s-.9,4.06-1.2,5.26l-14.81,57.58h-26.46l-28.04-109.91h22.93l9.65,15.81-5.19,17.41,14.36,19.55s.49,35.21,.58,36.01c.11-.82,15-37.39,15-37.39l-10.84-20.01,16.97-31.38h24.73l8.1,15.96-6.47,15.72,17,18.03s-.33,38.59-.28,39.07c.16-1.14,14.95-39.83,14.95-39.83l-11.15-17.56,12.52-31.38h26Z"/>
      <path class="cls-2" d="M452.9,88.42c11.28,0,19.92,2.46,25.94,7.37,6.01,4.91,9.02,12.38,9.02,22.4v56.01h-16.01l-4.44-11.43h-.6c-2.41,3.01-4.86,5.46-7.37,7.37s-5.39,3.31-8.65,4.21-7.22,1.35-11.88,1.35c-4.96,0-9.41-.95-13.35-2.86s-7.03-4.82-9.28-8.76-3.38-8.94-3.38-15c0-8.92,3.13-15.5,9.4-19.73,6.26-4.23,15.66-6.58,28.19-7.03l14.58-.45v-3.68c0-4.41-1.15-7.64-3.46-9.7s-5.51-3.08-9.62-3.08-8.04,.58-11.95,1.73-7.82,2.61-11.73,4.36l-7.59-15.49c4.46-2.36,9.46-4.21,15-5.56,5.53-1.35,11.26-2.03,17.18-2.03Zm12.18,46.83l-8.87,.3c-7.42,.2-12.57,1.53-15.45,3.98-2.88,2.46-4.32,5.69-4.32,9.7,0,3.51,1.03,6,3.08,7.48s4.74,2.22,8.04,2.22c4.91,0,9.06-1.45,12.44-4.36,3.39-2.91,5.08-7.04,5.08-12.4v-6.92Z"/>
      <path class="cls-2" d="M546.87,157.43c2.51,0,4.95-.25,7.33-.75s4.75-1.13,7.11-1.88v17.06c-2.46,1.1-5.5,2.02-9.13,2.75-3.64,.72-7.61,1.09-11.92,1.09-5.01,0-9.51-.82-13.49-2.44-3.99-1.63-7.12-4.46-9.4-8.5-2.28-4.03-3.42-9.66-3.42-16.87v-40.52h-10.98v-9.7l12.63-7.67,6.62-17.74h14.66v17.89h23.53v17.22h-23.53v40.52c0,3.21,.91,5.6,2.74,7.18,1.83,1.58,4.25,2.37,7.26,2.37Z"/>
      <path class="cls-2" d="M613.7,157.43c2.51,0,4.95-.25,7.33-.75s4.75-1.13,7.11-1.88v17.06c-2.46,1.1-5.5,2.02-9.13,2.75-3.64,.72-7.61,1.09-11.92,1.09-5.01,0-9.51-.82-13.49-2.44-3.99-1.63-7.12-4.46-9.4-8.5-2.28-4.03-3.42-9.66-3.42-16.87v-40.52h-10.98v-9.7l12.63-7.67,6.62-17.74h14.66v17.89h23.53v17.22h-23.53v40.52c0,3.21,.91,5.6,2.74,7.18,1.83,1.58,4.25,2.37,7.26,2.37Z"/>
    </g>
  </g>
</svg>
